<svg xmlns="http://www.w3.org/2000/svg" viewBox="0 0 390 478" width="390" height="478" role="img" aria-labelledby="t d"><title id="t">Galaxy of Nyx Orion</title><desc id="d">15 repositories; by focus area: Frontend 5, Backend 4, DevOps 1; 5 outside any area; brightest: nebula-ui with 1240 stars.</desc><defs><radialGradient id="hn"><stop offset="0" stop-color="#9fbcff" stop-opacity=".7"/><stop offset=".16" stop-color="#9fbcff" stop-opacity=".36"/><stop offset=".42" stop-color="#9fbcff" stop-opacity=".11"/><stop offset="1" stop-color="#9fbcff" stop-opacity="0"/></radialGradient><radialGradient id="cn"><stop offset=".5" stop-color="#ffffff"/><stop offset="1" stop-color="#9fbcff"/></radialGradient><linearGradient id="sn" x1="0" y1="0" x2="1" y2="0"><stop offset="0" stop-color="#9fbcff" stop-opacity="0"/><stop offset=".5" stop-color="#ffffff" stop-opacity=".95"/><stop offset="1" stop-color="#9fbcff" stop-opacity="0"/></linearGradient><linearGradient id="vn" x1="0" y1="0" x2="0" y2="1"><stop offset="0" stop-color="#9fbcff" stop-opacity="0"/><stop offset=".5" stop-color="#ffffff" stop-opacity=".95"/><stop offset="1" stop-color="#9fbcff" stop-opacity="0"/></linearGradient><radialGradient id="hy"><stop offset="0" stop-color="#fff3dc" stop-opacity=".7"/><stop offset=".16" stop-color="#fff3dc" stop-opacity=".36"/><stop offset=".42" stop-color="#fff3dc" stop-opacity=".11"/><stop offset="1" stop-color="#fff3dc" stop-opacity="0"/></radialGradient><radialGradient id="cy"><stop offset=".5" stop-color="#ffffff"/><stop offset="1" stop-color="#fff3dc"/></radialGradient><linearGradient id="sy" x1="0" y1="0" x2="1" y2="0"><stop offset="0" stop-color="#fff3dc" stop-opacity="0"/><stop offset=".5" stop-color="#ffffff" stop-opacity=".95"/><stop offset="1" stop-color="#fff3dc" stop-opacity="0"/></linearGradient><linearGradient id="vy" x1="0" y1="0" x2="0" y2="1"><stop offset="0" stop-color="#fff3dc" stop-opacity="0"/><stop offset=".5" stop-color="#ffffff" stop-opacity=".95"/><stop offset="1" stop-color="#fff3dc" stop-opacity="0"/></linearGradient><radialGradient id="cg"><stop offset="0" stop-color="#ffffff" stop-opacity="0.9"/><stop offset=".14" stop-color="#b4c6f5" stop-opacity="0.42"/><stop offset=".5" stop-color="#b4c6f5" stop-opacity="0.09"/><stop offset="1" stop-color="#b4c6f5" stop-opacity="0"/></radialGradient><filter id="lb" x="-40%" y="-80%" width="180%" height="260%"><feGaussianBlur stdDeviation="5.5"/></filter><g id="t00"><path d="M-159.2 27.7h.01m41.1 62h.01m-74.2 -59.2h.01m55.2 39.8h.01m53.2 46.6h.01m-89.1 -96h.01m15.5 22.2h.01m60.8 61.1h.01m-17.9 4.8h.01m-11.1 -16.6h.01m.6 12.7h.01m4.9 -21h.01m-28.7 -6.1h.01m39.4 14.2h.01m-46.3 -36.5h.01m70.3 66.7h.01m-62.6 -47h.01m76.7 43.8h.01m-42.8 -26.2h.01m18.6 17.8h.01m8.2 -2.7h.01m-7.6 2.4h.01m-74.4 -81.5h.01m20.3 15.8h.01m-23.2 -20.7h.01m29.5 9h.01m-31.7 4.2h.01m4.9 -10h.01m2.4 -18.4h.01m5.3 13h.01m50.2 66.9h.01m-63.2 -62.3h.01" stroke="#a9c7ff" stroke-width="1.3" stroke-opacity=".9"/><path d="M-116 83.9h.01m-48.2 -66.2h.01m-10.6 -8.5h.01m20.4 29.4h.01m-6 14.7h.01m-28.4 -20.9h.01m7.4 -6.2h.01m55.9 39.5h.01m-33.8 -1.5h.01m65.4 43.8h.01m-81.5 -46.3h.01m94.5 57.2h.01m-24.2 -7.7h.01" stroke="#f3f6ff" stroke-width="1.3" stroke-opacity=".9"/><path d="M-177.1 .9h.01m44.1 70.1h.01m49 35.3h.01m-53.7 -36.8h.01m-.2 3.7h.01m9.7 16.5h.01m-6.2 -9.5h.01m-7.8 -15h.01m-35.7 -25.7h.01m35.9 40.1h.01m73 39.7h.01m-21.7 -87.5h.01m-23.5 43.1h.01m39.3 30.7h.01m-62.5 -7h.01m-41.5 -42.8h.01" stroke="#ffb98a" stroke-width="1.3" stroke-opacity=".9"/><path d="M-165.5 7.1h.01m-6 98.3h.01m32.9 -19.3h.01m34.9 15.9h.01m32 18.6h.01m-110 -112.5h.01m53 82.6h.01m56.1 21.1h.01m-29.1 -14.1h.01m36.1 9.2h.01m-94.8 -45.2h.01m45.6 26.2h.01m-21.7 .7h.01m-12.8 -24h.01" stroke="#a9c7ff" stroke-width="2.14"/><path d="M-154.3 52.3h.01m34.9 33.5h.01m24.3 10.4h.01m-68.3 -77.5h.01m71.5 77.1h.01m-74.1 -78.6h.01m-10.1 -16.5h.01" stroke="#f3f6ff" stroke-width="2.14"/><path d="M-119.8 66.3h.01m-14.6 14.2h.01m-46.2 -58.8h.01" stroke="#ffb98a" stroke-width="2.14"/><defs><g id="d1"><path d="M-126.7 77.1h.01m15.3 17.4h.01m-40.8 -27.5h.01" stroke="#a9c7ff"/><path d="M-109.2 94h.01m5.5 10.4h.01" stroke="#f3f6ff"/><path d="M-176.9 22.1h.01m19.9 18.7h.01" stroke="#ffb98a"/></g></defs><use href="#d1" stroke-width="11.09" stroke-opacity=".035"/><use href="#d1" stroke-width="8.74" stroke-opacity=".07"/><use href="#d1" stroke-width="6.72" stroke-opacity=".13"/><use href="#d1" stroke-width="5.04" stroke-opacity=".26"/><use href="#d1" stroke-width="3.36"/><defs><g id="d2"><path d="M-110.5 105h.01m-56.6 -57.8h.01" stroke="#a9c7ff"/><path d="M-115.2 100.8h.01" stroke="#f3f6ff"/></g></defs><use href="#d2" stroke-width="17.13" stroke-opacity=".035"/><use href="#d2" stroke-width="13.49" stroke-opacity=".07"/><use href="#d2" stroke-width="10.38" stroke-opacity=".13"/><use href="#d2" stroke-width="7.79" stroke-opacity=".26"/><use href="#d2" stroke-width="5.19"/></g><radialGradient id="g0"><stop offset=".8" stop-color="#fff"/><stop offset="1" stop-color="#fff" stop-opacity="0"/></radialGradient><mask id="k0" maskUnits="userSpaceOnUse" x="-178.9" y="-178.9" width="357.8" height="357.8"><circle r="178.9" fill="url(#g0)"/></mask><g id="t01"><path d="M-137.9 29.2h.01m58.2 91.4h.01m-15 -13.6h.01m.8 -2.2h.01m-21.2 -25.9h.01m-17 -8.7h.01m-42.9 -35.3h.01m25.5 40.8h.01m-30 -75.7h.01m36.7 69.6h.01m8.3 9.5h.01m-16.5 48.3h.01m64.4 -11h.01m-12 -4.7h.01m13.1 -7.4h.01m5 4.1h.01m-11.9 -4.9h.01m-26.6 -8.3h.01m27.9 54.6h.01" stroke="#a9c7ff" stroke-width="2.34" stroke-opacity=".9"/><path d="M-145.2 63.2h.01m51.2 58.2h.01m-1.6 -14.4h.01m-34 -24.7h.01m35 13.4h.01m-55.6 -77.3h.01m6.7 49.9h.01m66 53.8h.01m-7.7 2.1h.01m-66.9 -103.1h.01m11.4 12.3h.01m44.8 76.2h.01m8.6 2.3h.01m-28.8 -16.8h.01m42.2 16.7h.01m-86.4 -28.9h.01m15.2 -51.1h.01m-27.7 -18.8h.01m35.7 51.4h.01m-13.4 -29.1h.01" stroke="#f3f6ff" stroke-width="2.34" stroke-opacity=".9"/><path d="M-129.6 80.7h.01m-18.6 -49.7h.01m25.1 50.2h.01m-21.5 -56.8h.01m53.6 77.7h.01" stroke="#ffb98a" stroke-width="2.34" stroke-opacity=".9"/><path d="M-57.5 49.9h.01m-82.5 16.1h.01m-21.2 -21.7h.01m17.2 -23.8h.01m8.2 55.9h.01m19.5 7.4h.01m16.9 35.4h.01m7 -15.8h.01m-41.3 -44.1h.01m48.9 61.7h.01m9.9 -21.9h.01m-67.1 -35.2h.01" stroke="#a9c7ff" stroke-width="3.85"/><path d="M-104.2 105.2h.01m12 13.3h.01m-52.8 -26.8h.01m70.9 3.7h.01m-94.7 -88.1h.01m82 97.4h.01" stroke="#f3f6ff" stroke-width="3.85"/><path d="M-96.7 104.7h.01m5 11.1h.01m-48.1 -46.9h.01m13.3 28.2h.01m2.4 -17.6h.01" stroke="#ffb98a" stroke-width="3.85"/><defs><g id="d3"><path d="M-120.9 77.1h.01m-60.9 -71.4h.01m110.8 110.9h.01m-78.3 -81.5h.01m70.6 71h.01" stroke="#a9c7ff"/><path d="M-146.2 75.1h.01m4.2 -33.6h.01m3.8 40h.01" stroke="#f3f6ff"/></g></defs><use href="#d3" stroke-width="19.93" stroke-opacity=".035"/><use href="#d3" stroke-width="15.7" stroke-opacity=".07"/><use href="#d3" stroke-width="12.08" stroke-opacity=".13"/><use href="#d3" stroke-width="9.06" stroke-opacity=".26"/><use href="#d3" stroke-width="6.04"/></g><radialGradient id="g1"><stop offset=".8" stop-color="#fff"/><stop offset="1" stop-color="#fff" stop-opacity="0"/></radialGradient><mask id="k1" maskUnits="userSpaceOnUse" x="-107.3" y="-107.3" width="214.7" height="214.7"><circle r="107.3" fill="url(#g1)"/></mask><g id="t02"><path d="M-125.5 81h.01m-7.6 11.8h.01m-15.5 -64.3h.01m51.7 77.7h.01m29.4 6.1h.01m-68.6 -20.3h.01m30.4 8h.01m7.3 13.4h.01m-24.9 -26.9h.01m15 17.6h.01m-46.8 -56.6h.01m33.6 34.5h.01m14.9 17.3h.01m22.5 .4h.01m-33.8 -6.4h.01m24.5 17.8h.01m-63.8 -90.5h.01m90.3 83.3h.01m-47.4 -35.7h.01m-13.5 8.4h.01" stroke="#a9c7ff" stroke-width="1.3" stroke-opacity=".9"/><path d="M-91.9 119.8h.01m-15.7 -26.9h.01m-12.1 4.3h.01m33.1 30.5h.01m-51.2 -46.2h.01m57.3 36h.01m11.2 -5.3h.01m-46.9 -35.4h.01m-18 -10.8h.01m56.4 39.1h.01m-16.4 1.2h.01m-48.7 -38.9h.01m70.2 34.5h.01m-47.8 -25.2h.01m16.9 19.2h.01m-9.3 -12.7h.01m-7.2 18h.01m-72 -94.4h.01m82.8 94h.01m-54.2 -75.1h.01" stroke="#f3f6ff" stroke-width="1.3" stroke-opacity=".9"/><path d="M-57.9 83.7h.01m-66.7 -12.3h.01m41.9 30.8h.01m-74.5 -41.8h.01m64.5 45.1h.01m-77.6 -85.1h.01m74.1 83.9h.01" stroke="#ffb98a" stroke-width="1.3" stroke-opacity=".9"/><path d="M-122.6 69.5h.01m11.7 29.1h.01m13.3 3h.01m23.8 19.5h.01m-66.3 -49.5h.01m-30.6 -37.7h.01m-4.2 -7.7h.01m99.5 82h.01m-5.7 18.4h.01m-.4 -15.7h.01m-92.7 -97.4h.01" stroke="#a9c7ff" stroke-width="2.14"/><path d="M-101.8 105.6h.01m-11.5 -21.2h.01m-45.7 -50.5h.01m13.6 -.1h.01m2.2 26.7h.01" stroke="#f3f6ff" stroke-width="2.14"/><path d="M-118 81.3h.01m-8 -22.8h.01" stroke="#ffb98a" stroke-width="2.14"/><defs><g id="d4"><path d="M-111.4 84.8h.01m-56.1 -41.4h.01m84.3 72.3h.01m-61.5 -55.3h.01m39.5 40.9h.01m24.2 20.7h.01" stroke="#a9c7ff"/><path d="M-176.7 23.7h.01m94 81.5h.01" stroke="#f3f6ff"/></g></defs><use href="#d4" stroke-width="11.09" stroke-opacity=".035"/><use href="#d4" stroke-width="8.74" stroke-opacity=".07"/><use href="#d4" stroke-width="6.72" stroke-opacity=".13"/><use href="#d4" stroke-width="5.04" stroke-opacity=".26"/><use href="#d4" stroke-width="3.36"/><defs><g id="d5"><path d="M-157.5 45.2h.01" stroke="#a9c7ff"/><path d="M-113.9 104.3h.01" stroke="#ffb98a"/></g></defs><use href="#d5" stroke-width="17.13" stroke-opacity=".035"/><use href="#d5" stroke-width="13.49" stroke-opacity=".07"/><use href="#d5" stroke-width="10.38" stroke-opacity=".13"/><use href="#d5" stroke-width="7.79" stroke-opacity=".26"/><use href="#d5" stroke-width="5.19"/></g><radialGradient id="g2"><stop offset=".288" stop-color="#fff" stop-opacity="0"/><stop offset=".385" stop-color="#fff"/><stop offset=".8" stop-color="#fff"/><stop offset="1" stop-color="#fff" stop-opacity="0"/></radialGradient><mask id="k2" maskUnits="userSpaceOnUse" x="-178.9" y="-178.9" width="357.8" height="357.8"><circle r="178.9" fill="url(#g2)"/></mask><g id="t10"><path d="M-113.1 92.6h.01m-47.9 -17.9h.01m6.5 -21h.01m45.5 46.5h.01m-47.3 -63.3h.01m15.3 17.6h.01m-4.2 -8.8h.01m4.6 31.6h.01m21.6 10.7h.01m-1.9 1.9h.01m-43.2 -85.6h.01m6.9 20.7h.01m86.5 89.4h.01m-99 -95h.01m16.2 39.7h.01m18.2 5.9h.01m-10.4 -34.5h.01m-15.8 -9.5h.01m-1.6 12.2h.01m30.1 38.4h.01m7.7 16.7h.01m24.2 24.5h.01m-42.1 -21.6h.01m66.8 5.1h.01m-24.6 -5.8h.01m-23.5 -38.3h.01m-.1 28.9h.01m28.1 7.2h.01m-27.8 -36.4h.01" stroke="#a9c7ff" stroke-width="1.3" stroke-opacity=".9"/><path d="M-147.9 77.4h.01m52.2 25.8h.01m-49.3 -52.1h.01m41.6 53.1h.01m2.1 -1.2h.01m-2.5 4.3h.01m-29.8 -21.1h.01m4.8 15.3h.01m-1.5 -20.1h.01m50.8 24.9h.01m-69.1 -62h.01m-38.4 -36h.01m38.8 41.4h.01m38.2 55.8h.01m-8.3 -13.6h.01m-.1 11.9h.01m-1.2 -11.9h.01m-57.8 -86.3h.01m93.1 99.7h.01m-102.1 -57.1h.01m36.4 40.2h.01m22 .1h.01m-2.9 9.6h.01" stroke="#f3f6ff" stroke-width="1.3" stroke-opacity=".9"/><path d="M-89.9 119.1h.01m-61.6 -50.3h.01m3 8.6h.01m-1.2 -4.5h.01m54.9 31h.01m-45.3 -30.6h.01m11.2 17.6h.01m14 -2.1h.01m-5.9 -8.2h.01m-23.2 -18.2h.01" stroke="#ffb98a" stroke-width="1.3" stroke-opacity=".9"/><path d="M-91.7 111.1h.01m-38.1 -25.4h.01m33.6 19.6h.01m-1.2 5.9h.01m-25.9 -20.4h.01m-41.9 -66.3h.01m2.5 -2.6h.01m75.7 81h.01m-.6 8.9h.01m-21.6 -7.6h.01m-70.5 -82.2h.01m102.6 82.8h.01" stroke="#a9c7ff" stroke-width="2.14"/><path d="M-125.9 92.2h.01m35.3 14.6h.01m7.8 -6h.01m-55.9 -53.6h.01m19.8 24.2h.01m33.8 30.8h.01m-12.2 6.3h.01m-50 -66.3h.01m37.1 55.8h.01" stroke="#f3f6ff" stroke-width="2.14"/><path d="M-127.1 64.3h.01m-30.2 .4h.01" stroke="#ffb98a" stroke-width="2.14"/><defs><g id="d6"><path d="M-120.1 91.9h.01m1.2 -8.5h.01m-6.8 9.9h.01m3.3 -4.6h.01" stroke="#a9c7ff"/><path d="M-116.5 99.1h.01m-43.3 -73.4h.01m43.1 59.2h.01m41.1 35.9h.01" stroke="#f3f6ff"/></g></defs><use href="#d6" stroke-width="11.09" stroke-opacity=".035"/><use href="#d6" stroke-width="8.74" stroke-opacity=".07"/><use href="#d6" stroke-width="6.72" stroke-opacity=".13"/><use href="#d6" stroke-width="5.04" stroke-opacity=".26"/><use href="#d6" stroke-width="3.36"/><defs><g id="d7"><path d="M-139.1 67.2h.01m47.8 33h.01" stroke="#a9c7ff"/></g></defs><use href="#d7" stroke-width="17.13" stroke-opacity=".035"/><use href="#d7" stroke-width="13.49" stroke-opacity=".07"/><use href="#d7" stroke-width="10.38" stroke-opacity=".13"/><use href="#d7" stroke-width="7.79" stroke-opacity=".26"/><use href="#d7" stroke-width="5.19"/></g><radialGradient id="g3"><stop offset=".8" stop-color="#fff"/><stop offset="1" stop-color="#fff" stop-opacity="0"/></radialGradient><mask id="k3" maskUnits="userSpaceOnUse" x="-161" y="-161" width="322" height="322"><circle r="161" fill="url(#g3)"/></mask><g id="t11"><path d="M-95.6 145.2h.01m10.7 -29h.01m3.8 8.2h.01m-64.4 -60.1h.01m-34.7 -46.8h.01m77.2 73.2h.01m34 25.3h.01m-33.2 -11.9h.01m-71.3 -95.9h.01m8 45.4h.01m7.6 -27.2h.01m88.4 93.3h.01m-52.7 -37.6h.01m45.4 27.2h.01m-67.7 -39.6h.01m-43.4 -57.2h.01m55.9 56.5h.01m-45.8 -49.9h.01m-15.7 -15.8h.01m32.8 48.4h.01m19.3 22h.01m46.7 48.9h.01m-53.7 -69.4h.01" stroke="#a9c7ff" stroke-width="2.34" stroke-opacity=".9"/><path d="M-151.8 7.3h.01m-39.5 19.3h.01m50.2 28.2h.01m-16 .1h.01m76.6 53.3h.01m-8.5 -4.1h.01m-3 22.7h.01m-25.3 -23.5h.01m38.3 31.7h.01m-121.9 -128h.01m113.2 107.4h.01m-83.4 -98.6h.01m22.7 43h.01m34.1 21.7h.01m27.8 -61.8h.01" stroke="#f3f6ff" stroke-width="2.34" stroke-opacity=".9"/><path d="M-183.2 7.2h.01m25 88.5h.01m-3.2 -51.7h.01m54.2 51.8h.01m-92.2 -94.8h.01" stroke="#ffb98a" stroke-width="2.34" stroke-opacity=".9"/><path d="M-161.7 46.3h.01m44.5 27.4h.01m-50.4 -45.4h.01" stroke="#a9c7ff" stroke-width="3.85"/><path d="M-196.8 1.5h.01m75.4 79.8h.01m41.6 36h.01m-7.8 1.2h.01m16.2 -11.5h.01m-87.4 -95.7h.01m2.8 27.6h.01m47.7 78.1h.01m21.5 -1.7h.01m-83.7 -89.1h.01" stroke="#f3f6ff" stroke-width="3.85"/><path d="M-110.6 105.3h.01m-69.9 -84.5h.01m94.9 85.8h.01m-5.4 1.6h.01m-62.5 -104.3h.01" stroke="#ffb98a" stroke-width="3.85"/><defs><g id="d8"><path d="M-114.8 83.8h.01m5.2 17h.01m-19.5 -31.7h.01m54.9 56.2h.01m-60.2 -47.1h.01" stroke="#a9c7ff"/><path d="M-85.8 108.5h.01m.9 10.2h.01" stroke="#f3f6ff"/><path d="M-134.2 56.1h.01m53.1 61.9h.01m-82.2 -77.1h.01m8.1 -10.8h.01" stroke="#ffb98a"/></g></defs><use href="#d8" stroke-width="19.93" stroke-opacity=".035"/><use href="#d8" stroke-width="15.7" stroke-opacity=".07"/><use href="#d8" stroke-width="12.08" stroke-opacity=".13"/><use href="#d8" stroke-width="9.06" stroke-opacity=".26"/><use href="#d8" stroke-width="6.04"/><defs><g id="d9"><path d="M-79.8 118.1h.01" stroke="#a9c7ff"/><path d="M-108.3 91h.01m-45.2 -49.4h.01" stroke="#f3f6ff"/></g></defs><use href="#d9" stroke-width="30.82" stroke-opacity=".035"/><use href="#d9" stroke-width="24.28" stroke-opacity=".07"/><use href="#d9" stroke-width="18.68" stroke-opacity=".13"/><use href="#d9" stroke-width="14.01" stroke-opacity=".26"/><use href="#d9" stroke-width="9.34"/></g><g id="t12"><path d="M-126.7 68.3h.01m53 34.1h.01m-65.8 -29.1h.01m-10.9 -39.6h.01m33.1 82.1h.01m-41 -69.9h.01m27.8 -6.3h.01m-12.6 25h.01m39.1 40.1h.01m-43.9 -56.8h.01m16 20.7h.01m9.9 12.5h.01m-7.1 -4.3h.01m23.3 21.4h.01m-25.7 -27.5h.01m69.5 36.5h.01m-109.7 -81.2h.01m61.1 55.8h.01m-19.7 -29.3h.01m33.6 60.2h.01m-30.4 -30.4h.01m-.3 -22.8h.01m-12.2 8.4h.01m-21.8 -37.9h.01m95.3 68.8h.01m-32.1 22.9h.01m-20.5 -39.8h.01m-61.5 -55.7h.01m75.6 77.6h.01m21.5 14.2h.01m-46.7 -58.9h.01m-32.2 -31.4h.01m-16 -26h.01m94.4 91.2h.01" stroke="#a9c7ff" stroke-width="1.3" stroke-opacity=".9"/><path d="M-173.1 22.3h.01m63.1 64.6h.01m-5.1 7.9h.01m31.2 -6.4h.01m-27.6 19.2h.01m6.4 -9.6h.01m-66.3 -97.7h.01m4.4 15.1h.01m24.8 22h.01m6.2 22.8h.01m6.8 15.3h.01m-42.5 -51.4h.01m67.9 94.3h.01m-18.1 -50h.01m34.9 51.3h.01" stroke="#f3f6ff" stroke-width="1.3" stroke-opacity=".9"/><path d="M-87 121.4h.01m-15.1 -35.3h.01m-3.9 21.7h.01m-8.4 -12.6h.01m-15.8 -2h.01m-44.3 -86.7h.01" stroke="#ffb98a" stroke-width="1.3" stroke-opacity=".9"/><path d="M-154.3 23.1h.01m15.7 15.7h.01m74 70.9h.01m-35.9 -2.6h.01m-36.6 -43.3h.01m4.2 17.6h.01m7.7 -20.1h.01m-15.9 -12.6h.01" stroke="#a9c7ff" stroke-width="2.14"/><path d="M-138.1 59.8h.01m54.6 34h.01m4.4 13.8h.01m17.3 -6.8h.01m-14.2 29.2h.01" stroke="#f3f6ff" stroke-width="2.14"/><path d="M-89 124.4h.01m-71.6 -101.3h.01" stroke="#ffb98a" stroke-width="2.14"/><defs><g id="d10"><path d="M-145 70.5h.01m13.1 -10h.01" stroke="#a9c7ff"/><path d="M-158.9 24.5h.01" stroke="#f3f6ff"/><path d="M-127.2 83.2h.01" stroke="#ffb98a"/></g></defs><use href="#d10" stroke-width="11.09" stroke-opacity=".035"/><use href="#d10" stroke-width="8.74" stroke-opacity=".07"/><use href="#d10" stroke-width="6.72" stroke-opacity=".13"/><use href="#d10" stroke-width="5.04" stroke-opacity=".26"/><use href="#d10" stroke-width="3.36"/><defs><g id="d11"><path d="M-128.6 86.8h.01" stroke="#ffb98a"/></g></defs><use href="#d11" stroke-width="17.13" stroke-opacity=".035"/><use href="#d11" stroke-width="13.49" stroke-opacity=".07"/><use href="#d11" stroke-width="10.38" stroke-opacity=".13"/><use href="#d11" stroke-width="7.79" stroke-opacity=".26"/><use href="#d11" stroke-width="5.19"/></g><radialGradient id="g4"><stop offset=".321" stop-color="#fff" stop-opacity="0"/><stop offset=".427" stop-color="#fff"/><stop offset=".8" stop-color="#fff"/><stop offset="1" stop-color="#fff" stop-opacity="0"/></radialGradient><mask id="k4" maskUnits="userSpaceOnUse" x="-161" y="-161" width="322" height="322"><circle r="161" fill="url(#g4)"/></mask><g id="t20"><path d="M-139.8 58.3h.01m-12.3 -23.6h.01m43.9 66.4h.01m-51.9 -88.2h.01m72.6 91.6h.01m-58.7 -51.4h.01m19.6 3.3h.01m-19 .7h.01m-15.1 -46.8h.01m79.1 100.1h.01m-52.2 -52.9h.01m-15.3 -20.9h.01m-2.7 -23.3h.01m6.5 39.7h.01m19.7 30.5h.01m-23.1 -4.1h.01m42.2 13.8h.01m-38.5 -38.1h.01m57.2 72.3h.01m5.8 -11.4h.01m-103.6 -112.2h.01m71.9 89.1h.01m-48.6 -83.1h.01m-6 -1.1h.01m70.7 91.9h.01m17.5 10.3h.01m-22.1 -53.7h.01m7.6 41h.01m-41.6 -34h.01m47.3 16.7h.01m-18.4 10.3h.01m-33.4 -39.4h.01m-32.5 -19.4h.01m64.8 59.6h.01" stroke="#a9c7ff" stroke-width="1.3" stroke-opacity=".9"/><path d="M-163.3 33.2h.01m24.6 33.7h.01m-5.4 -5.8h.01m19.4 9h.01m45.4 51.8h.01m-121.4 -86.9h.01m104.7 65.5h.01m-8.4 -4.4h.01m-50.3 -39.6h.01m48.2 39.4h.01m-40.2 -32.4h.01m74.1 38.2h.01m-161.5 -68h.01m81.7 -11.6h.01m61.2 77h.01m-57.7 -22.9h.01m2.9 -12.9h.01m-43 -47.6h.01m38.4 97.8h.01m69.1 -11.5h.01m-65.8 -23.4h.01" stroke="#f3f6ff" stroke-width="1.3" stroke-opacity=".9"/><path d="M-154.9 46.3h.01m12.4 9.8h.01m40.3 43.6h.01m.7 -5.5h.01m-47.9 -6.3h.01m1.8 -20.7h.01m68.1 49.8h.01" stroke="#ffb98a" stroke-width="1.3" stroke-opacity=".9"/><path d="M-124.3 98.1h.01m-41.9 -90h.01m34.7 62.3h.01m50.7 52h.01m-2.1 -.9h.01m-103.9 -121.3h.01m92.3 105.7h.01m-80.6 -73.1h.01m59.6 63.3h.01" stroke="#a9c7ff" stroke-width="2.14"/><path d="M-120.1 109.7h.01m-43 -61.6h.01m12.4 20h.01m62.5 48.7h.01m25.8 -26.5h.01m-116 -75.1h.01" stroke="#f3f6ff" stroke-width="2.14"/><path d="M-110 103.7h.01m24.6 4.8h.01m-39.4 -6.1h.01" stroke="#ffb98a" stroke-width="2.14"/><defs><g id="d12"><path d="M-76.7 101.9h.01m-69.5 -51.9h.01m23.1 28.4h.01m-47.2 -50.6h.01m.4 -18.9h.01" stroke="#a9c7ff"/><path d="M-141.5 69.1h.01m26.6 16.6h.01m-25.9 -28.9h.01" stroke="#f3f6ff"/><path d="M-162.8 18.5h.01m89.2 87.8h.01m-67.5 -38.8h.01m-13 -27.6h.01" stroke="#ffb98a"/></g></defs><use href="#d12" stroke-width="11.09" stroke-opacity=".035"/><use href="#d12" stroke-width="8.74" stroke-opacity=".07"/><use href="#d12" stroke-width="6.72" stroke-opacity=".13"/><use href="#d12" stroke-width="5.04" stroke-opacity=".26"/><use href="#d12" stroke-width="3.36"/><defs><g id="d13"><path d="M-161.9 16.5h.01m18.5 28.5h.01" stroke="#a9c7ff"/><path d="M-164.3 33.2h.01" stroke="#f3f6ff"/></g></defs><use href="#d13" stroke-width="17.13" stroke-opacity=".035"/><use href="#d13" stroke-width="13.49" stroke-opacity=".07"/><use href="#d13" stroke-width="10.38" stroke-opacity=".13"/><use href="#d13" stroke-width="7.79" stroke-opacity=".26"/><use href="#d13" stroke-width="5.19"/></g><g id="t21"><path d="M-142.6 68.5h.01m-20.9 -46h.01m-8.5 13.1h.01m17.2 22.9h.01m23.9 -50.4h.01m-24.4 30.1h.01m59.8 73.8h.01m-23.4 -30.3h.01m-1.5 7h.01m41.4 30h.01m1.2 -18.3h.01m-44.8 -36.7h.01m13.3 28.7h.01m19.3 11.2h.01m-69 -61.9h.01m53 46.6h.01m-63.5 -83.2h.01m98.4 112.2h.01m-24.9 -33h.01m-36.6 -5.5h.01m-39.7 -56.2h.01m25.6 38.4h.01" stroke="#a9c7ff" stroke-width="2.34" stroke-opacity=".9"/><path d="M-109.1 75.9h.01m-27 5.2h.01m57.2 26.4h.01m-42.2 -19.9h.01m-32.7 -21.9h.01m8.7 16.8h.01m-10 -37.9h.01m30.3 13.7h.01m-20.2 23.2h.01m12.4 2.5h.01m-12 -14h.01m-7.8 -27.9h.01m-22.3 -35.1h.01" stroke="#f3f6ff" stroke-width="2.34" stroke-opacity=".9"/><path d="M-162.1 72.1h.01m22.4 8.9h.01m-14.8 -46.4h.01m6.9 21h.01m-9.6 -36.7h.01m1.1 -2.5h.01m20.8 65.7h.01m-22.2 -45.7h.01m40.3 53h.01m-29.2 -81.5h.01m3.6 65.6h.01m-7.3 -45.3h.01m7.3 11.3h.01" stroke="#ffb98a" stroke-width="2.34" stroke-opacity=".9"/><path d="M-123.5 87.7h.01m-34.9 -12.6h.01m-.6 -47h.01m-5.4 -13.4h.01m7.8 16.5h.01m21.5 52.2h.01m17.7 20.8h.01m-47.7 -70.9h.01m30.4 28.7h.01m35.5 36.3h.01m25.5 15.2h.01" stroke="#a9c7ff" stroke-width="3.85"/><path d="M-80.5 103.1h.01m-43.3 -16h.01" stroke="#f3f6ff" stroke-width="3.85"/><path d="M-158.2 59.7h.01" stroke="#ffb98a" stroke-width="3.85"/><defs><g id="d14"><path d="M-118 93.4h.01m-10.3 -13.2h.01m.1 5.1h.01m31.5 25.9h.01m-13.4 -18.2h.01m-39.4 -54.1h.01" stroke="#a9c7ff"/><path d="M-159.8 43.2h.01m31.8 50.4h.01m-17.1 -31.1h.01m49.7 31.9h.01m-23.7 -13.9h.01" stroke="#ffb98a"/></g></defs><use href="#d14" stroke-width="19.93" stroke-opacity=".035"/><use href="#d14" stroke-width="15.7" stroke-opacity=".07"/><use href="#d14" stroke-width="12.08" stroke-opacity=".13"/><use href="#d14" stroke-width="9.06" stroke-opacity=".26"/><use href="#d14" stroke-width="6.04"/><defs><g id="d15"><path d="M-165.7 24.2h.01m80.5 90.7h.01" stroke="#a9c7ff"/></g></defs><use href="#d15" stroke-width="30.82" stroke-opacity=".035"/><use href="#d15" stroke-width="24.28" stroke-opacity=".07"/><use href="#d15" stroke-width="18.68" stroke-opacity=".13"/><use href="#d15" stroke-width="14.01" stroke-opacity=".26"/><use href="#d15" stroke-width="9.34"/></g><g id="t22"><path d="M-112.2 74.6h.01m-45.7 -55.4h.01m-7.9 60.3h.01m71.4 20.6h.01m2.3 3.4h.01m-1.8 3.4h.01m-68.7 -51.5h.01m11.4 5.4h.01m-31.2 -58.9h.01m24.9 54.9h.01m.8 -10.9h.01m-23 -26.6h.01m36.4 66.3h.01m12.4 -10.8h.01m-31.3 -39.4h.01m19.5 46.4h.01m-31.4 -67.6h.01m29.4 .3h.01m69.7 114.4h.01m-67.5 -54.1h.01" stroke="#a9c7ff" stroke-width="1.3" stroke-opacity=".9"/><path d="M-154.9 79.1h.01m27.5 -19.2h.01m-7.2 15.1h.01m-72.9 -71.8h.01m40.5 44.2h.01m7.4 -1.8h.01m14 -19.3h.01m-39.1 -23.5h.01m55.5 67.9h.01m17.8 21.9h.01" stroke="#f3f6ff" stroke-width="1.3" stroke-opacity=".9"/><path d="M-181.6 6.1h.01m75.8 90.8h.01m-53.9 -66.4h.01m9.4 21h.01m11.3 25.2h.01m-4.7 -12.3h.01m26.9 15h.01m39.1 44h.01m-61.6 -49.1h.01m-5.4 -25h.01" stroke="#ffb98a" stroke-width="1.3" stroke-opacity=".9"/><path d="M-154.9 35h.01m-14 -5.3h.01m-5.3 -12.3h.01m74.9 79.7h.01m-46.6 -28.1h.01m-22.6 -36.2h.01m20.3 17.9h.01m7.7 -10.8h.01m-33.4 -37.9h.01m24.6 42.8h.01m2.9 23.8h.01m-14.5 -17.8h.01" stroke="#a9c7ff" stroke-width="2.14"/><path d="M-160.8 25.3h.01m15.7 42.3h.01m6.9 9.4h.01m-13.8 14.4h.01m65 21h.01m-78.5 -63h.01m81.5 60h.01" stroke="#f3f6ff" stroke-width="2.14"/><path d="M-140.1 39.5h.01m-23.8 -13.7h.01m62.5 92.5h.01" stroke="#ffb98a" stroke-width="2.14"/><defs><g id="d16"><path d="M-135.1 78.6h.01m54.9 43.2h.01m-73.6 -64h.01m30.4 37.3h.01m-17.3 -14.5h.01m-8.7 -21.3h.01m73.8 60.4h.01" stroke="#a9c7ff"/><path d="M-152.2 44.5h.01m-17.6 -25h.01" stroke="#f3f6ff"/><path d="M-164.9 34.7h.01" stroke="#ffb98a"/></g></defs><use href="#d16" stroke-width="11.09" stroke-opacity=".035"/><use href="#d16" stroke-width="8.74" stroke-opacity=".07"/><use href="#d16" stroke-width="6.72" stroke-opacity=".13"/><use href="#d16" stroke-width="5.04" stroke-opacity=".26"/><use href="#d16" stroke-width="3.36"/><defs><g id="d17"><path d="M-146.1 63.2h.01m-11.2 -50.7h.01m55.6 91.4h.01" stroke="#a9c7ff"/></g></defs><use href="#d17" stroke-width="17.13" stroke-opacity=".035"/><use href="#d17" stroke-width="13.49" stroke-opacity=".07"/><use href="#d17" stroke-width="10.38" stroke-opacity=".13"/><use href="#d17" stroke-width="7.79" stroke-opacity=".26"/><use href="#d17" stroke-width="5.19"/></g><radialGradient id="g5"><stop offset=".481" stop-color="#fff" stop-opacity="0"/><stop offset=".641" stop-color="#fff"/><stop offset=".8" stop-color="#fff"/><stop offset="1" stop-color="#fff" stop-opacity="0"/></radialGradient><mask id="k5" maskUnits="userSpaceOnUse" x="-107.3" y="-107.3" width="214.7" height="214.7"><circle r="107.3" fill="url(#g5)"/></mask><path id="l4e" d="M62 0v-20l79-30v-559l-78-31v-20h140l392 508v-459l-94-29v-20h230v20l-79 30v615h-31l-422-545v489l96 31v20z"/><path id="l79" d="M-23-450h220v16l-80 25v4l133 312h3l116-308v-5l-77-28v-16h188v16l-70 27-216 531q-26 65-54 90-29 26-70 26-23 0-30-6-7-7-7-31v-34h94q16-21 31-50 15-29 41-88l18-40-175-399-65-26z"/><path id="l78" d="M26 0v-16l56-27 129-181-128-185-52-25v-16h195v16l-66 24v5l96 138 85-134v-5l-56-28v-16h156v16l-54 29-116 160 142 204 45 25v16h-182v-16l59-24v-5l-108-156-95 152v5l59 28v16z"/><path id="l4f" d="M395 10q-70 0-129-26-60-25-104-70-43-46-68-108-24-63-24-136 0-74 24-136 25-62 68-108 44-45 104-70 59-26 129-26 70 0 129 26 60 25 104 70 44 46 68 108 25 62 25 136 0 73-25 136-24 62-68 108-44 45-104 70-59 26-129 26zM416-32q66 0 116-33 50-33 78-93 28-60 28-141 0-100-35-174-35-74-94-115-59-41-131-41-66 0-117 33-51 32-79 92-29 60-29 141 0 100 35 175 35 74 95 115 60 41 133 41z"/><path id="l72" d="M56 0v-16l63-25v-332l-65-34v-11l117-42h8l8 95h2q47-54 77-73 31-20 58-20 19 0 31 8 12 9 12 26 0 3-1 8 0 6-2 14l-5 29-96-17q-45 21-76 64v285l73 25v16z"/><path id="l69" d="M147-596q-22 0-37-14-14-15-14-37 0-22 14-37 15-14 37-14 22 0 37 14 14 15 14 37 0 22-14 37-15 14-37 14zM58 0v-16l63-25v-332l-65-39v-10l125-38h8v419l66 25v16z"/><path id="l6f" d="M264 10q-64 0-112-31-48-31-75-84-27-53-27-120 0-67 27-120 27-53 75-84 48-31 112-31 64 0 112 31 48 31 75 84 27 53 27 120 0 67-27 120-27 53-75 84-48 31-112 31zM278-25q43 0 71-26 28-26 41-67 14-41 14-87 0-58-16-109-17-50-50-81-34-31-86-31-43 0-72 25-28 25-42 66-14 41-14 89 0 58 17 108 17 51 51 82 34 31 86 31z"/><path id="l6e" d="M52 0v-16l63-25v-332l-65-34v-11l117-42h8l7 73h4q38-38 72-55 35-18 77-18 60 0 99 32 39 31 39 93v294l63 25v16h-202v-16l71-25v-255q0-51-29-78-30-26-78-26-28 0-62 11-33 11-53 33v315l71 25v16z"/><path id="i46" d="M10 0l3-16 83-40 96-548-69-40 3-16h455l-30 172h-16l-38-122h-218l-43 244h151l62-85h16l-39 219h-16l-31-84h-152l-46 260 89 40-3 16z"/><path id="i75" d="M159 10q-37 0-61-29-23-29-23-79 0-10 1-20 2-10 3-20l45-251-78-35v-6l160-30h4l-52 306q-4 25-4 36 0 28 14 48 13 19 44 19 21 0 42-15 22-15 42-36 20-21 36-39l43-248-69-35v-6l152-30h4l-60 341q-5 30-2 43 4 13 19 13 17 0 37-19 20-18 38-56l13 6q-29 75-63 108-33 34-68 34-35 0-48-27-12-27-5-72l1-6h-3q-34 38-59 61-25 23-48 34-24 10-55 10z"/><path id="i6c" d="M101 10q-35 0-47-27-13-27-6-72l103-591-87-34v-6l173-30h3l-111 631q-5 30-1 43 3 13 16 13 17 0 37-19 20-18 38-56l13 6q-29 75-62 108-34 34-69 34z"/><path id="i53" d="M177 10q-58 0-97-12-39-11-80-34l19-164h16l39 117q27 27 54 39 28 12 57 12 71 0 107-42 36-41 36-107 0-41-26-70-27-29-96-67-56-32-82-68-26-36-26-85 0-57 31-102 31-45 79-71 49-26 102-26 44 0 80 11 35 11 69 31l-18 160h-16l-37-116q-17-17-40-30-22-12-57-12-31 0-57 16-27 17-44 47-16 30-16 71 0 36 22 62 23 27 76 57 52 29 82 55 30 25 44 54 13 28 13 65 0 62-33 109-33 47-86 74-54 26-115 26z"/><path id="i74" d="M131 10q-33 0-50-22-17-21-17-58 0-8 2-18 1-10 2-20l53-298h-74v-6l85-38 86-110h6l-19 110h125v44h-133l-45 254q-2 13-3 24-1 10-1 18 0 24 8 34 8 10 21 10 23 0 49-26 27-26 49-75l13 6q-33 94-74 133-40 38-83 38z"/><path id="i61" d="M136 10q-40 0-64-34-25-35-25-104 0-62 19-121 20-59 54-107 35-48 80-76 45-28 96-28 25 0 48 6 23 6 41 16l35-22h25l-61 341q-5 30-2 43 4 13 17 13 17 0 37-19 20-18 38-56l13 6q-29 75-63 108-33 34-68 34-35 0-48-27-13-27-5-72l5-26h-4q-37 58-80 91-42 34-88 34zM123-167q0 56 13 83 12 28 47 28 24 0 48-16 24-16 46-41 22-25 39-51l37-206q-19-25-39-38-19-13-47-13-43 0-75 37-33 37-51 95-18 58-18 122z"/><path id="i63" d="M380-140q-43 76-87 113-44 37-95 37-72 0-110-44-38-43-38-126 0-53 21-106 21-52 57-96 36-45 82-72 46-26 97-26 32 0 53 14 22 13 34 31 11 18 11 31 0 17-14 25l-36 23-56-86q-31 0-62 18-31 19-57 50-25 32-40 72-15 40-15 83 0 70 25 109 24 38 79 38 17 0 38-6 21-7 46-28 25-20 55-62h2z"/><path id="i6b" d="M30 0l119-678-78-35v-6l164-30h3l-132 749zM338 10q-23 0-37-12-14-12-25-32-11-20-25-45l-95-173v-5q65-68 106-109 40-40 64-60 23-21 38-28 15-6 30-6 24 0 36 10 13 11 13 21 0 2-1 7-1 4-4 11l-15 38-65-24q-13 6-25 16l-110 96 101 176q15 25 26 35 11 11 24 11 18 0 32-19 15-18 33-56l13 6q-31 76-55 109-24 33-59 33z"/><path id="i44" d="M10 0l3-16 83-40 96-548-69-40 3-16h221q119 0 193 34 74 35 108 96 34 60 34 138 0 49-14 102-15 54-46 106-30 51-78 92-47 42-112 67-65 25-150 25zM333-610h-54l-99 560h110q99 0 166-41 66-41 100-115 33-74 33-174 0-106-61-168-61-62-195-62z"/><path id="i65" d="M199 10q-76 0-113-42-36-43-36-116 0-59 20-114 19-56 54-100 34-45 80-72 45-26 98-26 50 0 76 23 25 23 25 54 0 34-24 63-24 28-83 52-60 23-168 41-2 20-2 42 0 61 26 97 26 36 82 36 33 0 65-18 32-19 66-59h2l10 8q-34 59-81 95-48 36-97 36zM275-425q-54 0-91 45-38 44-51 117 75-13 117-28 42-15 59-35 17-21 17-52 0-20-13-34-13-13-38-13z"/><path id="i76" d="M197 0l-89-394-85-30v-6l148-30h3l76 349h4l77-118q25-39 40-71 15-32 16-66l-56-48 27-33q11-13 24-13 22 0 42 24 19 25 19 55 0 24-15 57-16 34-57 96l-153 228z"/><path id="i6f" d="M220 10q-87 0-128-54-42-55-42-140 0-47 17-96 17-48 49-89 32-41 76-66 44-25 97-25 87 0 129 54 41 54 41 140 0 45-17 94-16 48-48 90-31 41-75 66-44 26-99 26zM231-28q44 0 75-34 32-33 49-88 17-56 17-122 0-74-20-112-19-39-72-39-42 0-74 31-33 30-51 84-18 54-18 127 0 74 20 113 20 40 74 40z"/><path id="i70" d="M-27 230v-16l55-28 102-575-78-35v-6l142-30h3v125h4q38-58 80-91 42-34 88-34 40 0 65 35 24 35 24 103 0 62-20 121-19 59-54 107-34 48-79 76-45 28-96 28-19 0-37-4-18-3-33-9l-31 188 80 29v16zM322-394q-24 0-48 16-24 16-46 41-22 25-40 52l-35 203q19 26 37 40 19 13 48 13 43 0 76-37 32-37 50-95 18-58 18-122 0-56-12-83-13-28-48-28z"/><path id="i72" d="M43 0l69-389-78-35v-6l141-30h3v123h4q30-51 50-77 21-27 38-36 16-10 34-10 20 0 34 10 14 11 14 23 0 9-4 18l-18 46-67-24q-19 9-41 35-21 27-56 84l-47 268z"/><path id="i26" d="M187 10q-73 0-115-42-42-42-42-104 0-50 18-87 18-37 56-69 39-31 98-65-24-34-39-67-15-33-15-76 0-54 24-92 24-38 66-58 41-20 91-20 42 0 75 16 34 16 54 43 20 27 20 61 0 36-19 63-19 27-60 53-41 26-108 59 8 11 19 25l135 174q50-63 95-157l-87-39 3-16h226l-3 16-87 36q-32 54-64 100-31 47-63 86l7 9q35 45 70 73 36 27 75 27 33 0 59-23h2l9 11q-23 31-54 47-31 16-66 16-54 0-91-28-38-28-70-69-50 47-104 72-54 25-115 25zM221-528q0 32 14 63 14 31 41 70 76-41 102-81 25-40 25-75 0-36-23-57-22-21-60-21-38 0-68 25-31 24-31 76zM115-168q0 52 33 86 32 33 84 33 81 0 154-64l-156-206q-3-4-6-8-3-4-6-8-56 38-80 78-23 40-23 89z"/><path id="i4f" d="M332 10q-82 0-143-37-61-37-95-103-34-66-34-152 0-75 28-145 28-70 78-125 51-55 119-87 68-32 148-32 83 0 144 37 61 37 95 103 34 66 34 153 0 73-28 142-27 70-77 126-50 55-119 88-68 32-150 32zM364-38q56 0 102-26 46-26 80-72 33-47 52-107 18-60 18-127 0-76-26-133-27-57-74-89-47-33-110-33-74 0-132 45-58 44-90 120-33 75-33 168 0 75 27 132 27 57 75 90 48 32 111 32z"/><path id="i6e" d="M43 0l69-389-78-35v-6l142-30h3v105h4q36-39 63-62 26-23 52-33 25-10 57-10 49 0 75 40 27 40 15 108l-35 193q-5 30-2 43 4 13 17 13 17 0 37-19 20-18 38-56l13 6q-29 75-63 108-33 34-68 34-35 0-48-27-13-27-5-72l39-220q5-35-8-63-14-27-58-27-22 0-46 15-23 15-45 36-22 20-39 39l-53 309z"/><path id="i45" d="M10 0l3-16 83-40 96-548-69-40 3-16h460l-31 172h-16l-37-122h-223l-43 244h161l62-85h16l-39 219h-16l-31-84h-162l-47 266h267l80-132h16l-32 182z"/><path id="i78" d="M2 0q0-12 9-25 9-13 31-35 21-23 58-62 36-39 92-104l-67-167-77-31v-6l128-30h2l72 182q38-49 60-78 21-30 32-46 10-17 15-28 5-10 10-20h58q0 11-7 22-8 12-26 32-19 19-51 53-32 34-81 91l74 186 75 30v6l-123 30h-3l-81-200q-44 58-70 92-26 35-39 54-13 19-19 30-6 12-11 24z"/><path id="m6e" d="M44 0v-16l64-32v-299l-61-50v-8l138-56h7l9 74h5q38-38 73-56 35-18 79-18 59 0 97 29 38 30 38 89v295l63 32v16h-224v-16l66-32v-249q0-43-26-65-26-21-67-21-25 0-55 9-29 8-48 24v302l66 32v16z"/><path id="m65" d="M259 10q-98 0-155-59-57-59-57-157 0-74 31-132 30-58 80-90 51-33 110-33 79 0 124 55 46 54 47 156l-5 5h-295q1 46 17 85 17 39 54 63 37 24 98 24 58 0 129-38h3v12q-24 46-71 77-47 32-110 32zM250-417q-44 0-72 33-29 33-36 93h212q-10-67-36-97-26-29-68-29z"/><path id="m62" d="M100 9v-645l-61-51v-8l148-55h7v350h4q73-61 149-61 49 0 88 25 39 26 62 74 23 49 23 115 0 81-32 139-31 57-84 88-53 30-119 30-42 0-78-8-36-7-67-21l-33 28zM286-389q-48 0-92 27v284q25 21 51 30 26 9 58 9 33 0 61-18 27-18 44-59 17-40 17-107 0-87-41-127-42-39-98-39z"/><path id="m75" d="M223 10q-59 0-97-30-37-30-37-88v-296l-64-31v-16h158v297q0 42 26 64 26 22 66 22 25 0 55-8 30-9 48-25v-303l-68-31v-16h163v406l69 29v16h-164v-63h-5q-37 37-72 55-35 18-78 18z"/><path id="m6c" d="M41 0v-16l63-32v-588l-60-51v-8l147-55h8v702l62 32v16z"/><path id="m61" d="M155 10q-49 0-80-28-31-29-31-78 0-50 36-85 35-35 122-56l96-23v-70q0-36-24-60-25-24-60-24-14 0-28 3-14 3-35 13v94h-67q-17 0-24-8-6-7-6-26 0-29 25-58 25-28 68-46 43-19 96-19 74 0 112 30 38 30 38 83v279q6 8 19 13 13 4 35 4h35l4 2v6q-12 21-36 38-25 16-60 16-34 0-55-17-21-17-30-45h-7q-26 27-64 44-38 18-79 18zM135-119q0 62 73 62 22 0 43-5 21-4 47-15v-148q-73 14-108 30-34 16-44 35-11 18-11 41z"/><path id="m2d" d="M49-222v-70h275v70z"/><path id="m69" d="M157-577q-27 0-45-18-18-18-18-45 0-28 18-46 18-17 45-17 27 0 45 17 18 18 18 46 0 27-18 45-18 18-45 18zM49 0v-16l64-32v-299l-61-51v-8l148-55h7v413l62 32v16z"/><path id="m73" d="M212 10q-48 0-82-8-34-9-70-27v-112h15l32 54q33 55 102 55 40 0 61-18 22-18 22-50 0-26-13-42-13-16-39-28-25-12-62-29-52-23-80-51-27-28-27-77 0-39 21-70 22-31 56-49 34-19 72-19 36 0 68 9 32 8 63 24v111h-14l-33-52q-33-52-81-52-33 0-53 17-20 16-20 45 0 32 23 49 23 18 74 40 28 13 56 28 28 14 47 40 19 25 19 72 0 46-25 77-24 31-60 47-36 16-72 16z"/><path id="m74" d="M211 10q-48 0-81-26-34-26-34-73v-316h-80v-8l87-38 78-110h9v110h133v46h-133v297q0 25 22 38 23 12 54 12 19 0 35-2 16-2 29-5h3v12q-12 23-43 43-32 20-79 20z"/><path id="m72" d="M47 0v-16l64-32v-298l-61-51v-8l138-56h8l9 92h4q36-49 67-69 30-21 59-21 22 0 37 11 14 11 14 32 0 6-3 22l-9 41-103-21q-38 15-65 53v273l73 32v16z"/><path id="m67" d="M255-163q-23 0-45-5-33 15-42 30-9 16-9 30 0 17 13 29 14 12 45 12h130q74 0 109 33 35 34 35 99 0 44-28 84-28 40-81 65-53 26-127 26-58 0-96-19-38-19-56-50-18-31-18-68 0-12 3-23 2-10 7-20l64-48v-1q-35-10-53-34-19-24-19-56 0-24 11-52l77-49q-40-19-64-54-24-35-24-79 0-41 23-75 22-34 60-54 38-19 85-19 22 0 47 5 25 6 39 14l156-9v55l-107-6-2 1q15 17 25 41 10 23 10 47 0 43-22 77-22 34-60 54-38 19-86 19zM264-205q34 0 54-30 20-30 20-75 0-51-26-81-25-30-62-30-36 0-56 30-21 30-21 76 0 50 25 80 26 30 66 30zM158 83q0 53 32 89 33 35 85 35 60 0 97-33 38-32 38-75 0-39-19-61-19-22-82-22h-105q-1 0-2 0-24 8-34 26-10 18-10 41z"/><path id="m70" d="M44 230v-16l64-32v-528l-61-51v-8l138-56h7l8 61h7q38-33 73-47 35-14 75-14 49 0 88 25 39 26 62 74 23 49 23 115 0 81-32 139-31 57-82 88-52 30-115 30-54 0-97-10v182l73 32v16zM294-389q-48 0-92 27v283q26 22 54 31 29 9 64 9 30 0 56-17 26-17 42-56 15-38 15-103 0-91-41-133-42-41-98-41z"/><path id="i64" d="M139 10q-40 0-65-34-24-35-24-104 0-62 20-121 19-59 54-107 34-48 79-76 45-28 96-28 36 0 69 13l41-233-87-34v-6l173-30h3l-111 631q-5 30-1 43 3 13 16 13 17 0 37-19 20-18 38-56l13 6q-29 75-62 108-34 34-69 34-35 0-48-27-13-27-5-72l5-26h-4q-84 125-168 125zM126-167q0 63 14 87 15 24 46 24 29 0 65-30 36-29 68-78l36-205q-21-28-41-40-19-12-44-12-40 0-72 35-33 35-52 92-20 58-20 127z"/><path id="i42" d="M10 0l3-16 83-40 96-548-69-40 3-16h216q101 0 160 34 59 35 59 106 0 53-39 101-40 48-113 66 78 13 117 53 40 39 40 100 0 48-32 94-32 46-96 76-64 30-159 30zM339-610h-61l-43 245h64q86 0 127-39 42-40 42-99 0-53-30-80-30-27-99-27zM314-315h-88l-46 265h108q93 0 138-41 46-41 46-109 0-60-38-88-37-27-120-27z"/><path id="i73" d="M302-127q0 32-22 63-22 32-62 53-41 21-97 21-24 0-52-10-28-9-47-25-20-16-20-35 0-8 4-14 3-5 9-10l23-22 79 80q8 1 14 1 50 0 78-23 28-23 28-55 0-26-15-48-16-22-69-53-53-32-71-60-18-27-18-68 0-30 22-60 23-29 62-48 38-20 87-20 50 0 77 18 28 17 28 40 0 9-7 16l-23 25-76-66q-5 0-10 0-45 0-69 21-24 20-24 52 0 15 5 28 6 14 24 29 18 15 53 37 53 32 71 61 18 29 18 72z"/><style>@media (prefers-reduced-motion: no-preference){.tw{animation:tw 3.2s ease-in-out infinite}@keyframes tw{50%{opacity:.4}}.flow{animation:flow 22s linear infinite}@keyframes flow{0%{transform:rotate(0deg) scale(1)}25%{transform:rotate(15deg) scale(1.0616)}50%{transform:rotate(30deg) scale(1.127)}75%{transform:rotate(45deg) scale(1.1964)}100%{transform:rotate(60deg) scale(1.2701)}}.swirl{animation:swirl 60s linear infinite}@keyframes swirl{to{transform:rotate(360deg)}}.act{animation:act 3.6s linear both}@keyframes act{0%{opacity:0;transform:rotate(var(--t)) scale(var(--s))}12%{opacity:1}40%{transform:rotate(var(--u)) scale(var(--r));animation-timing-function:cubic-bezier(.55,.05,.85,.5)}78%{transform:rotate(var(--v)) scale(.5);animation-timing-function:cubic-bezier(.2,.6,.3,1)}100%{opacity:1;transform:rotate(0deg) scale(1)}}.leave{animation:leave 1s ease-in 3.95s both}@keyframes leave{0%{opacity:1}100%{opacity:0}}.ignite{animation:ignite 1.9s ease-out 2.52s both}@keyframes ignite{0%{transform:scale(.08);opacity:0}38%{transform:scale(1.35);opacity:1}100%{transform:scale(1)}}.arrive{animation:arrive 1.2s ease-out 3.7s both}@keyframes arrive{from{opacity:0}}.pop{animation:pop .75s cubic-bezier(.2,1.5,.4,1) both}@keyframes pop{from{transform:scale(0);opacity:0}}.spk{animation:spk 5s ease-in-out infinite}@keyframes spk{50%{opacity:.3}}.soft{animation:soft 1.2s ease-out both}@keyframes soft{from{opacity:0}}}</style></defs><rect width="390" height="478" rx="10" fill="#0b1020"/><g stroke-linecap="round" fill="none"><path d="M319.8 353.2h.01m-223.6 77h.01m81.9 24.2h.01m101.2 -210.8h.01m-185.6 159.8h.01m28.6 -116.4h.01" stroke="#b4c6f5" stroke-width=".8" stroke-opacity=".25"/><path d="M115.3 189h.01m265.9 236.3h.01m-214.1 -247.6h.01m95.8 169.3h.01" stroke="#b4c6f5" stroke-width=".8" stroke-opacity=".4"/><path d="M26.4 469.2h.01m96 -54.1h.01" stroke="#b4c6f5" stroke-width=".8" stroke-opacity=".58"/><path d="M192.5 309.9h.01m-39 -69.4h.01m36.3 204.7h.01m-146.7 -222.1h.01m216.8 -10.7h.01m-210.6 117.9h.01m8 -83.7h.01" stroke="#b4c6f5" stroke-width="1.2" stroke-opacity=".25"/><path d="M277.4 316.8h.01m-88.8 -172.5h.01m171.6 90.7h.01m-95.2 190.4h.01" stroke="#b4c6f5" stroke-width="1.2" stroke-opacity=".4"/><path d="M296.4 50h.01m-145.3 406h.01" stroke="#b4c6f5" stroke-width="1.2" stroke-opacity=".58"/><path d="M261.5 197.9h.01m-192 56.7h.01m78.6 -101.7h.01m205.8 206.7h.01m12.4 -199.6h.01" stroke="#b4c6f5" stroke-width="1.7" stroke-opacity=".25"/><path d="M185.7 193.5h.01m-164.6 -148.2h.01m41.5 66.1h.01m206.1 103.1h.01m28.5 221.9h.01m-15.6 -104.6h.01" stroke="#b4c6f5" stroke-width="1.7" stroke-opacity=".4"/><path d="M147.8 204.8h.01m13.1 97.9h.01m-113.9 -46.1h.01m224.8 71.1h.01m55.4 -236.4h.01m-93.5 30.9h.01" stroke="#b4c6f5" stroke-width="1.7" stroke-opacity=".58"/></g><circle cx="37.3" cy="373" r=".6" fill="#b4c6f5" fill-opacity="0.25" class="tw" style="animation-delay:0s"/><circle cx="268.9" cy="298.2" r=".6" fill="#b4c6f5" fill-opacity="0.25" class="tw" style="animation-delay:-.7s"/><circle cx="106" cy="170.1" r=".6" fill="#b4c6f5" fill-opacity="0.58" class="tw" style="animation-delay:-1.4s"/><circle cx="12.8" cy="294.2" r=".4" fill="#b4c6f5" fill-opacity="0.58" class="tw" style="animation-delay:-2.1s"/><circle cx="33.4" cy="184.1" r=".6" fill="#b4c6f5" fill-opacity="0.25" class="tw" style="animation-delay:-2.8s"/><circle cx="277.7" cy="105" r=".4" fill="#b4c6f5" fill-opacity="0.4" class="tw" style="animation-delay:-3.5s"/><circle cx="273.1" cy="394.7" r=".6" fill="#b4c6f5" fill-opacity="0.4" class="tw" style="animation-delay:-4.2s"/><circle cx="70.7" cy="466.3" r=".4" fill="#b4c6f5" fill-opacity="0.4" class="tw" style="animation-delay:-4.9s"/><g transform="translate(195 282)" stroke-linecap="round" fill="none"><circle class="ignite" r="86" fill="url(#cg)"/><g class="arrive"><g mask="url(#k0)"><g class="flow" style="animation-delay:-17.69s;animation-duration:22s"><use href="#t00" transform="rotate(35) scale(1)"/><use href="#t00" transform="rotate(-25) scale(.7873)"/><use href="#t00" transform="rotate(-85) scale(.6199)"/><use href="#t00" transform="rotate(-145) scale(.4881)"/><use href="#t00" transform="rotate(-205) scale(.3843)"/><use href="#t00" transform="rotate(-265) scale(.3026)"/><use href="#t00" transform="rotate(-325) scale(.2382)"/><use href="#t00" transform="rotate(-385) scale(.1876)"/><use href="#t00" transform="rotate(-445) scale(.1477)"/><use href="#t00" transform="rotate(-505) scale(.1163)"/><use href="#t00" transform="rotate(-565) scale(.0916)"/></g></g><g mask="url(#k1)"><g class="flow" style="animation-delay:-20.65s;animation-duration:29s"><use href="#t01" transform="rotate(-25) scale(.7873)"/><use href="#t01" transform="rotate(-85) scale(.6199)"/><use href="#t01" transform="rotate(-145) scale(.4881)"/><use href="#t01" transform="rotate(-205) scale(.3843)"/><use href="#t01" transform="rotate(-265) scale(.3026)"/><use href="#t01" transform="rotate(-325) scale(.2382)"/><use href="#t01" transform="rotate(-385) scale(.1876)"/><use href="#t01" transform="rotate(-445) scale(.1477)"/><use href="#t01" transform="rotate(-505) scale(.1163)"/><use href="#t01" transform="rotate(-565) scale(.0916)"/></g></g><g mask="url(#k2)"><g class="flow" style="animation-delay:-23.89s;animation-duration:25s"><use href="#t02" transform="rotate(35) scale(1)"/><use href="#t02" transform="rotate(-25) scale(.7873)"/><use href="#t02" transform="rotate(-85) scale(.6199)"/><use href="#t02" transform="rotate(-145) scale(.4881)"/><use href="#t02" transform="rotate(-205) scale(.3843)"/><use href="#t02" transform="rotate(-265) scale(.3026)"/></g></g><g mask="url(#k3)"><g class="flow" style="animation-delay:-19.67s;animation-duration:22s"><use href="#t10" transform="rotate(155) scale(1)"/><use href="#t10" transform="rotate(95) scale(.7873)"/><use href="#t10" transform="rotate(35) scale(.6199)"/><use href="#t10" transform="rotate(-25) scale(.4881)"/><use href="#t10" transform="rotate(-85) scale(.3843)"/><use href="#t10" transform="rotate(-145) scale(.3026)"/><use href="#t10" transform="rotate(-205) scale(.2382)"/><use href="#t10" transform="rotate(-265) scale(.1876)"/><use href="#t10" transform="rotate(-325) scale(.1477)"/><use href="#t10" transform="rotate(-385) scale(.1163)"/><use href="#t10" transform="rotate(-445) scale(.0916)"/></g></g><g mask="url(#k1)"><g class="flow" style="animation-delay:-9.28s;animation-duration:29s"><use href="#t11" transform="rotate(95) scale(.7873)"/><use href="#t11" transform="rotate(35) scale(.6199)"/><use href="#t11" transform="rotate(-25) scale(.4881)"/><use href="#t11" transform="rotate(-85) scale(.3843)"/><use href="#t11" transform="rotate(-145) scale(.3026)"/><use href="#t11" transform="rotate(-205) scale(.2382)"/><use href="#t11" transform="rotate(-265) scale(.1876)"/><use href="#t11" transform="rotate(-325) scale(.1477)"/><use href="#t11" transform="rotate(-385) scale(.1163)"/><use href="#t11" transform="rotate(-445) scale(.0916)"/></g></g><g mask="url(#k4)"><g class="flow" style="animation-delay:-8.41s;animation-duration:25s"><use href="#t12" transform="rotate(155) scale(1)"/><use href="#t12" transform="rotate(95) scale(.7873)"/><use href="#t12" transform="rotate(35) scale(.6199)"/><use href="#t12" transform="rotate(-25) scale(.4881)"/><use href="#t12" transform="rotate(-85) scale(.3843)"/><use href="#t12" transform="rotate(-145) scale(.3026)"/></g></g><g mask="url(#k1)"><g class="flow" style="animation-delay:-6.7s;animation-duration:22s"><use href="#t20" transform="rotate(215) scale(.7873)"/><use href="#t20" transform="rotate(155) scale(.6199)"/><use href="#t20" transform="rotate(95) scale(.4881)"/><use href="#t20" transform="rotate(35) scale(.3843)"/><use href="#t20" transform="rotate(-25) scale(.3026)"/><use href="#t20" transform="rotate(-85) scale(.2382)"/><use href="#t20" transform="rotate(-145) scale(.1876)"/><use href="#t20" transform="rotate(-205) scale(.1477)"/><use href="#t20" transform="rotate(-265) scale(.1163)"/><use href="#t20" transform="rotate(-325) scale(.0916)"/></g></g><g mask="url(#k1)"><g class="flow" style="animation-delay:-11.17s;animation-duration:29s"><use href="#t21" transform="rotate(215) scale(.7873)"/><use href="#t21" transform="rotate(155) scale(.6199)"/><use href="#t21" transform="rotate(95) scale(.4881)"/><use href="#t21" transform="rotate(35) scale(.3843)"/><use href="#t21" transform="rotate(-25) scale(.3026)"/><use href="#t21" transform="rotate(-85) scale(.2382)"/><use href="#t21" transform="rotate(-145) scale(.1876)"/><use href="#t21" transform="rotate(-205) scale(.1477)"/><use href="#t21" transform="rotate(-265) scale(.1163)"/><use href="#t21" transform="rotate(-325) scale(.0916)"/></g></g><g mask="url(#k5)"><g class="flow" style="animation-delay:-20.26s;animation-duration:25s"><use href="#t22" transform="rotate(215) scale(.7873)"/><use href="#t22" transform="rotate(155) scale(.6199)"/><use href="#t22" transform="rotate(95) scale(.4881)"/><use href="#t22" transform="rotate(35) scale(.3843)"/><use href="#t22" transform="rotate(-25) scale(.3026)"/></g></g><g class="swirl"><path d="M-3.9 -27.5h.01m3.4 28.6h.01m-4.4 -4.1h.01m4.6 6.8h.01m19.7 15.8h.01m-18.4 -17.1h.01m-29.8 -19.9h.01m30.5 10.7h.01m-1.5 6.4h.01m13.2 1.7h.01m-28.9 6.5h.01m15.4 -7.5h.01m-1.9 6.2h.01m-4.5 15.2h.01m20.8 -26.2h.01m-17.4 -.9h.01m-1.3 -11.9h.01m4.1 21.4h.01m19.4 -3.7h.01m-19.9 -1.5h.01m-9.5 6.7h.01m10.1 -5.6h.01m-12.9 -8.5h.01m-3.7 33.7h.01m14.5 -41h.01m1.3 8.2h.01m-27.5 8.4h.01m23.6 -5.4h.01m23.5 5.7h.01m-24.4 0h.01m4.3 15.8h.01m-12.1 -8h.01m-24 22.3h.01m65.6 -46h.01m-27.6 17.5h.01m10.2 7.2h.01m5.2 -11.9h.01m-18.9 2.9h.01m-5.1 1.9h.01m-19.4 -18.6h.01m26.5 14.5h.01m-.8 -5.4h.01m19.1 -3.5h.01m-14.4 27.2h.01m-5.4 -13.1h.01m-3.4 8.7h.01m6.8 -.5h.01m-32.9 1.4h.01m42.5 -17h.01m-16.1 -.7h.01m-.7 19.2h.01m9 -20.2h.01m-11.3 30.2h.01m4.4 -21.6h.01m5.4 4.2h.01m-31.2 -18.2h.01m14.8 18.7h.01m-21.8 -8.6h.01m10.7 -.9h.01m25.8 -20.8h.01m-1.7 9.3h.01m6.9 10.8h.01m-6.9 -.5h.01m11.5 -6.8h.01m-10 9.1h.01m.5 8.8h.01m-.2 -7.4h.01m4.7 -22.6h.01m3.7 11.6h.01m-11.8 19.1h.01m1.7 -7.8h.01m1.6 -.9h.01m6.4 14.2h.01m-11.7 -6.8h.01m19.7 -3.5h.01m-3.7 3.5h.01m-8.1 .1h.01m-2.2 -11.2h.01m16.5 -3.9h.01m-18.8 6.8h.01m25.4 -8.5h.01m-24.4 -5.6h.01m-15.5 -4.8h.01m5.3 13.9h.01m22.8 -9.8h.01m16.5 5.5h.01m-22.5 3.8h.01m-5.4 1.1h.01m-15.6 -8.5h.01m-15.1 34h.01" stroke="#a9c7ff" stroke-width="1" stroke-opacity=".9"/><path d="M9.3 -3.5h.01m14 -3.8h.01m-21.8 -3.8h.01m.5 -1.3h.01m3.7 20.2h.01m-15.6 -1.3h.01m7.5 -4.7h.01m11.5 21.1h.01m-1.4 -21.4h.01m-22.6 .7h.01m28.1 -10.3h.01m-11.5 -14.7h.01m-.1 22.3h.01m11.2 12.3h.01m-21.4 -18.6h.01m10.1 7.3h.01m-2.6 8.8h.01m10.7 -2.6h.01m-21.2 -15h.01m8.6 8.4h.01m30.1 20.2h.01m-25 -.9h.01m1.5 -23.8h.01m-16.7 -31.2h.01m41.6 19.7h.01m-36.2 5h.01m32.9 9.8h.01m-7.4 -19.4h.01m-16.4 22.9h.01m-6.4 3.1h.01m3 -4.5h.01m-5.6 -12.4h.01m3.7 16.4h.01m-1.2 2.5h.01m7.4 -20.2h.01m8.1 -19h.01m-29.8 25.2h.01m8.6 -13.6h.01m-2.2 6.6h.01m12.2 12.9h.01m1.9 7.1h.01m-9.6 4.9h.01m-4.4 -26.4h.01m9.7 17.1h.01m-12.6 -11.6h.01m15.1 9h.01m1.2 -7.7h.01m32.2 15.2h.01m-20.6 -.9h.01m-12.4 -4.6h.01m7.1 22.8h.01m-5.1 -23.9h.01m-8 -7.6h.01m5.9 8h.01m-34.2 -3.9h.01" stroke="#f3f6ff" stroke-width="1" stroke-opacity=".9"/><path d="M-6.1 5.8h.01m24.6 -8.3h.01m-17.7 1.5h.01m.8 -1.1h.01m.2 -4.7h.01m-3.9 1.8h.01m-1.4 8.2h.01m0 -5.9h.01m-7 19.2h.01m21.2 9.7h.01m-11.8 -29.2h.01m34.8 4.4h.01m-27.1 4.3h.01m-3.6 -18.4h.01m-16.2 2.1h.01m52 -6.8h.01m-60.5 30.4h.01m-7.6 -5.7h.01m39.8 -8.6h.01m-11.7 -.3h.01m7.3 17.4h.01m-1.2 -10.1h.01m-4.2 -18h.01m-8.5 -4.4h.01m16 8.7h.01m-9.1 15.6h.01m-11.5 1h.01m13.3 -7.5h.01m-9.4 -9.2h.01m24.9 1.7h.01m-10 2.5h.01m-19.3 -3h.01m3.6 20h.01m5.9 -35.7h.01m3.8 12.5h.01m12.1 -10.3h.01m-21 31.9h.01m5.4 -13.6h.01" stroke="#ffb98a" stroke-width="1" stroke-opacity=".9"/><path d="M1.3 2.6h.01m-19.7 2h.01m18.3 -4.5h.01m1 3.6h.01m-16.3 -4.6h.01m22.2 22.4h.01m-8.2 -20.2h.01m.8 -2.7h.01m9.6 -3.3h.01m-14 7.1h.01m7 -1.7h.01m-7.8 -7.4h.01m16.7 10.1h.01m-21.7 -20.2h.01m19.7 5.8h.01m-9.9 22.3h.01m-3.4 -6.7h.01m11.5 -29.9h.01m-8.6 30.7h.01m-2.3 -7.1h.01m-3.5 9.5h.01m7.2 -7h.01m5.2 6.3h.01m-1.3 -28.3h.01m-23.6 19.1h.01m31.5 15.7h.01m-11.9 -13.7h.01m-9.1 -1.8h.01m9.2 1.7h.01m-17.3 -20.9h.01m32.4 16.2h.01m-21 6.3h.01m3.4 2.1h.01m-3 7.7h.01m8.5 10.7h.01m-3.2 -21.5h.01m-5.4 .2h.01m3.5 -.6h.01m8.2 12.3h.01" stroke="#a9c7ff" stroke-width="1.7"/><path d="M13.7 -3.8h.01m-24 -1.7h.01m-6.7 -2.7h.01m10.3 -.5h.01m-5.6 11h.01m19.8 -10.5h.01m-19 -11.4h.01m15.1 18.5h.01m-6.8 5.6h.01m2.8 -3.2h.01m7.6 -9.7h.01m-8.3 -22.7h.01m-20.7 .2h.01m13.1 26.4h.01m18.3 16.4h.01m-13.1 -9.6h.01m5.2 -2.9h.01m-9 2.1h.01m-10.6 11.1h.01m17.7 -12.6h.01m-5.4 17.9h.01m26.4 -1.6h.01m-20.7 14.9h.01m4.6 -31.9h.01m-3.9 .9h.01m-8.5 29.5h.01m1.4 -44.6h.01m12.7 39h.01m4.7 -28.4h.01m8.9 -1.5h.01m-23.5 25h.01m-2.2 -25.7h.01m26.2 7.5h.01m-19.8 -16.8h.01m-1.1 16.1h.01m-6 .9h.01" stroke="#f3f6ff" stroke-width="1.7"/><path d="M-7.9 -4.2h.01m9.7 4.8h.01m-3.6 12.5h.01m-4 -38.3h.01m5 26.6h.01m-7.1 -12.7h.01m13.3 12h.01m-.6 5.3h.01m-.5 -11h.01" stroke="#ffb98a" stroke-width="1.7"/><defs><g id="d18"><path d="M17 6.3h.01m-17 -.4h.01m5.7 7.2h.01m2.4 -15.9h.01m-11.7 26.3h.01m6.5 -27.9h.01m-2.1 -2.5h.01m-10.7 2.5h.01m7.8 10.5h.01m-3.3 8.1h.01m3.2 -20.9h.01m4.2 38.2h.01m-25.7 -18h.01m25.2 -7.4h.01m-.3 -1.6h.01m3.4 -3h.01m18.4 -14.2h.01m-3.5 32.3h.01m-28.8 -23.6h.01" stroke="#a9c7ff"/><path d="M29.1 -9.7h.01m-20.2 11.8h.01m-4.5 11.7h.01m11.5 -2.8h.01m-21.4 -13.2h.01m4.9 2h.01m11.4 3.9h.01m-11.3 -3.9h.01m4.9 12.4h.01m-2 -26.9h.01m.9 21.4h.01m-8.5 -3.2h.01m4.9 5.4h.01m21.4 -12h.01m-21.5 -.7h.01m2.2 12.1h.01" stroke="#f3f6ff"/><path d="M-2.5 15.3h.01m-1.4 .1h.01m2.8 -26.6h.01m49.2 13.4h.01m-47.5 .6h.01" stroke="#ffb98a"/></g></defs><use href="#d18" stroke-width="8.25" stroke-opacity=".035"/><use href="#d18" stroke-width="6.5" stroke-opacity=".07"/><use href="#d18" stroke-width="5" stroke-opacity=".13"/><use href="#d18" stroke-width="3.75" stroke-opacity=".26"/><use href="#d18" stroke-width="2.5"/><defs><g id="d19"><path d="M1.9 -1.2h.01m-8.4 -10h.01m4.8 23.8h.01m2.5 -11.7h.01m11.9 4.3h.01m-12.8 -3.5h.01m10 -22.2h.01m-.5 21.3h.01" stroke="#a9c7ff"/><path d="M8.3 -13.9h.01m-3.5 4.8h.01m-4.7 9.3h.01m8.1 .7h.01" stroke="#f3f6ff"/><path d="M-6 11.2h.01" stroke="#ffb98a"/></g></defs><use href="#d19" stroke-width="11.88" stroke-opacity=".035"/><use href="#d19" stroke-width="9.36" stroke-opacity=".07"/><use href="#d19" stroke-width="7.2" stroke-opacity=".13"/><use href="#d19" stroke-width="5.4" stroke-opacity=".26"/><use href="#d19" stroke-width="3.6"/></g></g><g class="leave mo" opacity="0"><g class="act" style="animation-delay:.03s;--t:-122.4deg;--u:-113.9deg;--v:-24.5deg;--s:2.39;--r:2.32"><path d="M51 -133h.01m-7 23h.01m-79 140h.01m-58 -112h.01m69 185h.01m51 -119h.01m-32 -10h.01m-135 -50h.01m94 -43h.01m47 129h.01m-13 49h.01m-1 -17h.01m84 16h.01m-109 -63h.01m109 -55h.01m-117 10h.01" stroke="#a9c7ff" stroke-width=".8"/><path d="M-22 -14h.01m-60 34h.01m74 -46h.01m-62 -53h.01m66 119h.01m6 -38h.01m62 -69h.01m-124 47h.01m81 14h.01m-25 -121h.01m8 168h.01m-20 -25h.01" stroke="#f3f6ff" stroke-width=".8"/><path d="M-59 -9h.01m4 24h.01m49 -23h.01m-42 -23h.01m-115 15h.01m167 41h.01" stroke="#ffb98a" stroke-width=".8"/><path d="M29 17h.01m52 -10h.01m-82 3h.01m-36 93h.01m66 -93h.01" stroke="#a9c7ff" stroke-width="1.3"/><path d="M-50 -117h.01m107 94h.01m18 53h.01m-76 -30h.01" stroke="#f3f6ff" stroke-width="1.3"/><path d="M5 -12h.01m48 -66h.01m-53 80h.01" stroke="#ffb98a" stroke-width="1.3"/><path d="M33 -85h.01" stroke="#a9c7ff" stroke-width="2"/><path d="M-52 -42h.01" stroke="#ffb98a" stroke-width="2"/></g><g class="act" style="animation-delay:.12s;--t:-114.9deg;--u:-106.8deg;--v:-23deg;--s:3.17;--r:3.07"><path d="M-1 -2h.01m24 30h.01m-47 -97h.01m8 -5h.01m-1 55h.01m46 31h.01m-53 28h.01m52 -45h.01m-76 65h.01m60 -152h.01m35 174h.01m-78 -105h.01m-54 31h.01m65 -17h.01m78 -124h.01m-52 193h.01m-58 -106h.01" stroke="#a9c7ff" stroke-width=".8"/><path d="M34 -74h.01m-63 5h.01m86 143h.01m-117 -98h.01m112 -43h.01m-60 95h.01m9 -28h.01m3 -29h.01" stroke="#f3f6ff" stroke-width=".8"/><path d="M-53 7h.01m66 -137h.01m-22 85h.01m9 75h.01m19 1h.01" stroke="#ffb98a" stroke-width=".8"/><path d="M13 16h.01m-20 10h.01m-82 -78h.01m31 32h.01m9 41h.01m60 0h.01m8 -32h.01" stroke="#a9c7ff" stroke-width="1.3"/><path d="M-18 39h.01m-24 53h.01m77 -170h.01m-46 183h.01m44 -234h.01" stroke="#f3f6ff" stroke-width="1.3"/><path d="M-18 -38h.01m88 27h.01m-70 11h.01m-15 -122h.01m-90 88h.01" stroke="#ffb98a" stroke-width="1.3"/><path d="M37 -144h.01" stroke="#a9c7ff" stroke-width="2"/></g><g class="act" style="animation-delay:.05s;--t:-186.8deg;--u:-173.8deg;--v:-37.4deg;--s:3.2;--r:3.1"><path d="M-85 1h.01m39 -62h.01m10 51h.01m50 -9h.01m-160 16h.01m162 -46h.01m39 18h.01m-109 -20h.01m85 7h.01m34 111h.01m-14 7h.01m-10 -147h.01m-73 105h.01m59 -33h.01m-110 18h.01" stroke="#a9c7ff" stroke-width=".8"/><path d="M24 -7h.01m-150 46h.01m70 21h.01m59 -74h.01m-17 87h.01m15 -78h.01m-44 67h.01m96 4h.01m-32 -59h.01m-23 60h.01" stroke="#f3f6ff" stroke-width=".8"/><path d="M-31 -126h.01m83 -12h.01" stroke="#ffb98a" stroke-width=".8"/><path d="M-64 -8h.01m135 30h.01m-148 -99h.01m23 -38h.01m1 124h.01m45 61h.01m-120 -2h.01m122 -22h.01m35 -33h.01" stroke="#a9c7ff" stroke-width="1.3"/><path d="M34 -45h.01m-178 -1h.01m112 -16h.01" stroke="#f3f6ff" stroke-width="1.3"/><path d="M-1 -1h.01m70 23h.01m-65 -23h.01m-6 2h.01m-59 -25h.01" stroke="#ffb98a" stroke-width="1.3"/><path d="M-2 0h.01" stroke="#a9c7ff" stroke-width="2"/><path d="M47 -78h.01m-18 91h.01" stroke="#f3f6ff" stroke-width="2"/><path d="M-30 10h.01" stroke="#ffb98a" stroke-width="2"/></g><g class="act" style="animation-delay:.03s;--t:-192.7deg;--u:-179.2deg;--v:-38.5deg;--s:3.17;--r:3.08"><path d="M10 58h.01m-19 -73h.01m80 4h.01m-200 -43h.01m78 152h.01m-4 -116h.01m112 -6h.01m-90 24h.01m-21 -35h.01m-26 -52h.01m70 83h.01m-45 -47h.01m115 134h.01m-161 -106h.01m139 -111h.01m-191 144h.01m151 -11h.01" stroke="#a9c7ff" stroke-width=".8"/><path d="M-5 -4h.01m29 28h.01m-74 -75h.01m133 -82h.01m-138 175h.01m-33 -74h.01m111 23h.01m-94 -23h.01m4 140h.01m-11 -11h.01m108 -94h.01m-51 41h.01m-10 -10h.01" stroke="#f3f6ff" stroke-width=".8"/><path d="M-99 -26h.01m101 38h.01m-162 -30h.01m161 20h.01m-6 -51h.01m14 36h.01" stroke="#ffb98a" stroke-width=".8"/><path d="M-59 -38h.01m7 1h.01m-68 98h.01m139 -73h.01m-96 102h.01" stroke="#a9c7ff" stroke-width="1.3"/><path d="M-34 -29h.01m-100 33h.01m80 -3h.01m-83 23h.01m104 -134h.01" stroke="#f3f6ff" stroke-width="1.3"/><path d="M-86 -60h.01" stroke="#ffb98a" stroke-width="1.3"/><path d="M-9 64h.01" stroke="#a9c7ff" stroke-width="2"/></g><g class="act" style="animation-delay:.08s;--t:-223.2deg;--u:-207.6deg;--v:-44.6deg;--s:3.2;--r:3.11"><path d="M-84 108h.01m23 -53h.01m101 -128h.01m-39 116h.01m-13 -26h.01m66 42h.01m-133 36h.01m103 -177h.01m-86 -16h.01m80 66h.01m-52 66h.01" stroke="#a9c7ff" stroke-width=".8"/><path d="M-20 -78h.01m30 81h.01m44 -136h.01m-91 130h.01m-102 56h.01m1 -95h.01m214 74h.01m-117 -137h.01m34 124h.01m7 -71h.01m19 72h.01m48 -39h.01m-125 -14h.01m82 -51h.01m-160 106h.01" stroke="#f3f6ff" stroke-width=".8"/><path d="M74 12h.01m-70 -14h.01m-87 13h.01" stroke="#ffb98a" stroke-width=".8"/><path d="M4 14h.01m-4 -4h.01m47 -6h.01m-59 38h.01m3 -174h.01m53 115h.01m-79 -49h.01m-2 2h.01m79 -72h.01m-42 167h.01m-31 -142h.01" stroke="#a9c7ff" stroke-width="1.3"/><path d="M-51 18h.01m-76 -76h.01m126 83h.01" stroke="#f3f6ff" stroke-width="1.3"/><path d="M19 24h.01m-8 -18h.01m-63 4h.01m-33 -78h.01m88 69h.01" stroke="#ffb98a" stroke-width="1.3"/></g><g class="act" style="animation-delay:.29s;--t:-283.8deg;--u:-263.9deg;--v:-56.8deg;--s:3.07;--r:2.98"><path d="M2 64h.01m-20 6h.01m78 -138h.01m-81 91h.01m49 64h.01m-99 -44h.01m12 -53h.01m70 6h.01m-13 8h.01m-60 -5h.01m18 19h.01m-113 -63h.01m203 47h.01" stroke="#a9c7ff" stroke-width=".8"/><path d="M48 20h.01m-89 -83h.01m-18 47h.01m86 39h.01m-87 -125h.01m56 103h.01" stroke="#f3f6ff" stroke-width=".8"/><path d="M-140 -39h.01m146 20h.01m-26 -5h.01m55 -28h.01" stroke="#ffb98a" stroke-width=".8"/><path d="M0 1h.01m-7 -9h.01m-42 102h.01m74 -68h.01m-82 -61h.01m17 -83h.01m-17 118h.01m65 66h.01m-79 -162h.01m148 23h.01m-72 110h.01m-6 -1h.01" stroke="#a9c7ff" stroke-width="1.3"/><path d="M-36 36h.01m10 -21h.01m16 11h.01m-49 -118h.01" stroke="#f3f6ff" stroke-width="1.3"/><path d="M-16 -13h.01m69 -72h.01m-17 41h.01m1 87h.01m-65 64h.01m-85 -62h.01m114 17h.01m29 -64h.01" stroke="#ffb98a" stroke-width="1.3"/><path d="M-96 14h.01" stroke="#f3f6ff" stroke-width="2"/></g><g class="act" style="animation-delay:.2s;--t:-241deg;--u:-224.1deg;--v:-48.2deg;--s:2.39;--r:2.32"><path d="M20 -15h.01m-47 26h.01m52 7h.01m-34 -138h.01m-20 190h.01m-8 -196h.01m49 141h.01m45 58h.01m-35 -85h.01" stroke="#a9c7ff" stroke-width=".8"/><path d="M3 5h.01m-24 -120h.01m100 -9h.01m-23 89h.01m-142 -34h.01m76 -20h.01m83 132h.01m-172 -63h.01m104 71h.01m-15 -98h.01" stroke="#f3f6ff" stroke-width=".8"/><path d="M-40 26h.01m35 -17h.01m12 -68h.01m-41 45h.01m16 5h.01m-19 66h.01m27 -64h.01m-5 32h.01m33 -24h.01m-3 28h.01" stroke="#ffb98a" stroke-width=".8"/><path d="M-44 -41h.01m56 60h.01m-2 -5h.01m0 0h.01m24 -31h.01m-35 18h.01m80 29h.01m-180 -74h.01m46 8h.01" stroke="#a9c7ff" stroke-width="1.3"/><path d="M-150 -64h.01m169 -15h.01m-38 -52h.01m-13 71h.01m35 66h.01" stroke="#f3f6ff" stroke-width="1.3"/><path d="M-89 22h.01m119 -17h.01m-32 -4h.01" stroke="#ffb98a" stroke-width="1.3"/><path d="M-145 -100h.01" stroke="#a9c7ff" stroke-width="2"/><path d="M-151 11h.01" stroke="#ffb98a" stroke-width="2"/></g><g class="act" style="animation-delay:.26s;--t:-161.3deg;--u:-150deg;--v:-32.3deg;--s:2.67;--r:2.59"><path d="M-15 -29h.01m16 58h.01m-1 -166h.01m36 175h.01m-43 -39h.01m-38 -47h.01m43 148h.01m8 -189h.01m-26 193h.01m-130 -140h.01m159 51h.01" stroke="#a9c7ff" stroke-width=".8"/><path d="M-4 -2h.01m25 -2h.01m-24 28h.01m78 -7h.01m-207 13h.01" stroke="#f3f6ff" stroke-width=".8"/><path d="M-37 27h.01m-110 -112h.01m145 102h.01m18 -23h.01m-11 -46h.01m-27 52h.01m-29 17h.01m67 -33h.01m-11 54h.01m-12 30h.01m80 -39h.01m-101 -143h.01" stroke="#ffb98a" stroke-width=".8"/><path d="M-10 -3h.01m25 7h.01m0 -88h.01m-37 95h.01m22 -12h.01m0 1h.01m-40 61h.01m42 -54h.01m-138 31h.01m113 31h.01" stroke="#a9c7ff" stroke-width="1.3"/><path d="M-21 -12h.01m19 -17h.01m13 29h.01" stroke="#f3f6ff" stroke-width="1.3"/><path d="M-2 14h.01m28 5h.01m-143 -95h.01m93 39h.01m-2 -37h.01" stroke="#ffb98a" stroke-width="1.3"/><path d="M0 44h.01m-75 -7h.01" stroke="#a9c7ff" stroke-width="2"/></g><g class="act" style="animation-delay:.29s;--t:-264.1deg;--u:-245.6deg;--v:-52.8deg;--s:2.34;--r:2.27"><path d="M-48 109h.01m-114 -155h.01m155 64h.01m25 0h.01m-76 -9h.01m83 -89h.01m-87 80h.01m43 -44h.01m55 85h.01m-143 38h.01m152 -65h.01m-101 -34h.01" stroke="#a9c7ff" stroke-width=".8"/><path d="M6 22h.01m-25 19h.01m-13 -72h.01m-55 110h.01m150 -153h.01m-77 -3h.01m51 156h.01m-79 -132h.01m112 -25h.01m-52 82h.01m4 22h.01m-44 -24h.01m-73 -4h.01" stroke="#f3f6ff" stroke-width=".8"/><path d="M12 -88h.01m13 102h.01m-49 2h.01m25 9h.01m-4 21h.01" stroke="#ffb98a" stroke-width=".8"/><path d="M-9 66h.01m-34 -128h.01m-14 -48h.01m-37 203h.01m65 -170h.01m-19 16h.01m51 7h.01" stroke="#a9c7ff" stroke-width="1.3"/><path d="M-46 -59h.01m65 79h.01m53 13h.01m-33 -1h.01m-3 -120h.01" stroke="#f3f6ff" stroke-width="1.3"/><path d="M-20 -75h.01m-46 177h.01m142 -75h.01m-1 -22h.01m-78 -13h.01" stroke="#ffb98a" stroke-width="1.3"/><path d="M-38 -15h.01" stroke="#a9c7ff" stroke-width="2"/></g><g class="act" style="animation-delay:.23s;--t:-237.6deg;--u:-221deg;--v:-47.5deg;--s:3.05;--r:2.96"><path d="M42 81h.01m26 -146h.01m-114 56h.01m36 8h.01m17 9h.01m-20 -34h.01m13 -56h.01m3 88h.01m54 -133h.01m-41 99h.01m51 19h.01m-65 -4h.01" stroke="#a9c7ff" stroke-width=".8"/><path d="M-67 104h.01m-12 -205h.01m59 87h.01m-10 -54h.01m-24 28h.01m2 94h.01m65 3h.01m1 -35h.01" stroke="#f3f6ff" stroke-width=".8"/><path d="M-19 -11h.01m-39 115h.01m126 -48h.01" stroke="#ffb98a" stroke-width=".8"/><path d="M-55 -31h.01m63 53h.01m-61 -10h.01m62 -31h.01m-18 -24h.01m52 63h.01m-50 -149h.01m82 125h.01m-81 -6h.01m14 31h.01" stroke="#a9c7ff" stroke-width="1.3"/><path d="M-22 42h.01m94 -23h.01m-152 -63h.01m167 -82h.01m-171 39h.01m118 135h.01m-184 -101h.01" stroke="#f3f6ff" stroke-width="1.3"/><path d="M0 0h.01m3 -5h.01m-87 -43h.01m53 -75h.01m30 188h.01m40 -21h.01m-87 -151h.01m64 87h.01" stroke="#ffb98a" stroke-width="1.3"/></g><g class="act" style="animation-delay:.29s;--t:-184.1deg;--u:-171.2deg;--v:-36.8deg;--s:2.58;--r:2.5"><path d="M-102 74h.01m79 -107h.01m22 28h.01m-93 -68h.01m8 167h.01m100 -81h.01m-93 -1h.01m78 -15h.01m-28 19h.01m-113 9h.01m81 -136h.01m87 111h.01m-16 35h.01m-12 32h.01m15 -85h.01m-105 -9h.01" stroke="#a9c7ff" stroke-width=".8"/><path d="M-2 104h.01m-15 -122h.01m-4 -97h.01m-43 94h.01m74 41h.01m17 -153h.01" stroke="#f3f6ff" stroke-width=".8"/><path d="M-75 -57h.01m61 41h.01m-9 56h.01m7 61h.01" stroke="#ffb98a" stroke-width=".8"/><path d="M13 8h.01m-50 93h.01m100 -183h.01m-83 81h.01m21 0h.01m-7 1h.01m-27 -73h.01" stroke="#a9c7ff" stroke-width="1.3"/><path d="M-24 -64h.01m39 19h.01m-171 -58h.01m170 88h.01m-4 -77h.01m-11 65h.01m-1 26h.01m7 -6h.01m19 -1h.01m-35 -67h.01" stroke="#f3f6ff" stroke-width="1.3"/><path d="M-26 41h.01m-27 12h.01" stroke="#ffb98a" stroke-width="1.3"/><path d="M30 -137h.01m-1 144h.01" stroke="#a9c7ff" stroke-width="2"/><path d="M-28 17h.01" stroke="#f3f6ff" stroke-width="2"/></g><g class="act" style="animation-delay:0s;--t:-256deg;--u:-238deg;--v:-51.2deg;--s:2.56;--r:2.48"><path d="M-51 -31h.01m2 44h.01m-57 -56h.01m69 80h.01m37 -33h.01m11 -10h.01m-27 30h.01m26 -43h.01m-23 17h.01m18 -8h.01m72 19h.01m-78 99h.01m89 -237h.01m-129 82h.01" stroke="#a9c7ff" stroke-width=".8"/><path d="M-58 -47h.01m4 19h.01m-6 133h.01m54 -87h.01m70 -83h.01m-71 -7h.01m-48 66h.01" stroke="#f3f6ff" stroke-width=".8"/><path d="M-86 -64h.01m53 124h.01m31 -91h.01" stroke="#ffb98a" stroke-width=".8"/><path d="M-167 -39h.01m194 -92h.01m-110 216h.01m56 -147h.01m30 59h.01m26 -81h.01m-36 52h.01" stroke="#a9c7ff" stroke-width="1.3"/><path d="M0 -2h.01m-42 95h.01m61 -109h.01m33 -57h.01m-35 101h.01m-29 -13h.01m25 15h.01m-1 -26h.01m24 34h.01m-33 -18h.01m25 -11h.01" stroke="#f3f6ff" stroke-width="1.3"/><path d="M-5 -71h.01m10 43h.01m34 54h.01m-49 -30h.01m28 1h.01" stroke="#ffb98a" stroke-width="1.3"/><path d="M-141 -96h.01" stroke="#ffb98a" stroke-width="2"/></g><g class="act" style="animation-delay:.07s;--t:-159.6deg;--u:-148.4deg;--v:-31.9deg;--s:2.52;--r:2.45"><path d="M32 17h.01m-38 -8h.01m-136 -96h.01m52 76h.01m46 119h.01m14 2h.01m55 -113h.01m-76 49h.01m63 -40h.01m67 29h.01m-59 27h.01m-105 -131h.01m89 -78h.01m10 59h.01m-167 15h.01m58 150h.01m86 -120h.01m16 54h.01m-96 -4h.01m100 26h.01" stroke="#a9c7ff" stroke-width=".8"/><path d="M39 -45h.01m-57 26h.01m43 -123h.01m-32 136h.01m-32 -60h.01m-1 7h.01" stroke="#f3f6ff" stroke-width=".8"/><path d="M79 -111h.01m-77 96h.01m25 67h.01m-15 -49h.01m-62 52h.01" stroke="#ffb98a" stroke-width=".8"/><path d="M-1 4h.01m34 -52h.01m-39 111h.01m-5 43h.01m20 -141h.01m-50 -74h.01m56 24h.01m-83 -17h.01m70 102h.01m-129 -62h.01" stroke="#a9c7ff" stroke-width="1.3"/><path d="M0 0h.01m35 94h.01m-55 20h.01" stroke="#f3f6ff" stroke-width="1.3"/><path d="M-50 104h.01m77 -153h.01" stroke="#ffb98a" stroke-width="1.3"/><path d="M19 -13h.01" stroke="#a9c7ff" stroke-width="2"/><path d="M-2 2h.01" stroke="#ffb98a" stroke-width="2"/></g><g class="act" style="animation-delay:.17s;--t:-241.7deg;--u:-224.7deg;--v:-48.3deg;--s:2.98;--r:2.89"><path d="M-8 -29h.01m14 28h.01m-11 10h.01m-137 39h.01m156 54h.01m-23 -113h.01m30 -2h.01m-148 61h.01m124 -4h.01m-148 -120h.01m154 114h.01" stroke="#a9c7ff" stroke-width=".8"/><path d="M-1 -3h.01m-41 -111h.01m-13 90h.01m94 -110h.01m-5 179h.01m-32 -134h.01m12 125h.01m-20 -35h.01m13 32h.01m-19 -79h.01m22 -2h.01" stroke="#f3f6ff" stroke-width=".8"/><path d="M-19 -22h.01m-40 43h.01m59 -21h.01m77 12h.01m-65 -29h.01m13 105h.01m-100 -49h.01m-60 19h.01m159 1h.01" stroke="#ffb98a" stroke-width=".8"/><path d="M8 -12h.01m-5 49h.01m-31 -5h.01m-17 -153h.01m-12 173h.01m120 7h.01m18 -122h.01m-20 35h.01m-36 50h.01" stroke="#a9c7ff" stroke-width="1.3"/><path d="M51 4h.01m-92 -5h.01m35 13h.01m6 50h.01" stroke="#f3f6ff" stroke-width="1.3"/><path d="M-92 77h.01m97 -166h.01" stroke="#ffb98a" stroke-width="1.3"/><path d="M1 100h.01m-2 -154h.01" stroke="#a9c7ff" stroke-width="2"/></g></g></g><g class="soft" style="animation-delay:5.8s"><g fill="#9ca0a9" stroke="#0b1020" stroke-width="280" stroke-linejoin="round" paint-order="stroke"><use href="#i46" transform="translate(27.4 306.4) rotate(69.1) scale(.0125) translate(-301.5 0)"/><use href="#i72" transform="translate(29.5 311.5) rotate(67) scale(.0125) translate(-172.5 0)"/><use href="#i6f" transform="translate(31.5 316.2) rotate(65) scale(.0125) translate(-254.5 0)"/><use href="#i6e" transform="translate(34.4 322) rotate(62.9) scale(.0125) translate(-265 0)"/><use href="#i74" transform="translate(36.8 326.7) rotate(61.8) scale(.0125) translate(-157 0)"/><use href="#i65" transform="translate(39.1 330.8) rotate(59.7) scale(.0125) translate(-221.5 0)"/><use href="#i6e" transform="translate(42.3 336) rotate(57.6) scale(.0125) translate(-265 0)"/><use href="#i64" transform="translate(45.8 341.3) rotate(55.4) scale(.0125) translate(-257.5 0)"/></g><g fill="#9ca0a9" stroke="#0b1020" stroke-width="280" stroke-linejoin="round" paint-order="stroke"><use href="#i42" transform="translate(152.2 154.6) rotate(-32.1) scale(.0125) translate(-313 0)"/><use href="#i61" transform="translate(158.3 151.1) rotate(-28.4) scale(.0125) translate(-253.5 0)"/><use href="#i63" transform="translate(163.4 148.5) rotate(-25.9) scale(.0125) translate(-213.5 0)"/><use href="#i6b" transform="translate(168.4 146.1) rotate(-23.5) scale(.0125) translate(-233.5 0)"/><use href="#i65" transform="translate(173.7 143.9) rotate(-21.1) scale(.0125) translate(-221.5 0)"/><use href="#i6e" transform="translate(179.4 141.8) rotate(-18.7) scale(.0125) translate(-265 0)"/><use href="#i64" transform="translate(185.5 139.8) rotate(-16.4) scale(.0125) translate(-257.5 0)"/></g><g fill="#9ca0a9" stroke="#0b1020" stroke-width="280" stroke-linejoin="round" paint-order="stroke"><use href="#i44" transform="translate(190.8 193.4) rotate(-15.6) scale(.0125) translate(-366 0)"/><use href="#i65" transform="translate(197.9 191.7) rotate(-10.2) scale(.0125) translate(-221.5 0)"/><use href="#i76" transform="translate(203.4 190.8) rotate(-6.7) scale(.0125) translate(-224 0)"/><use href="#i4f" transform="translate(211 190.1) rotate(-3.3) scale(.0125) translate(-383 0)"/><use href="#i70" transform="translate(219 190) rotate(1.8) scale(.0125) translate(-254 0)"/><use href="#i73" transform="translate(224.3 190.3) rotate(5.2) scale(.0125) translate(-176.5 0)"/></g></g><g transform="translate(92.3 267.3)"><g class="pop" style="animation-delay:4.5s"><circle r="8.2" fill="url(#hy)"/><g><path fill="url(#sy)" d="M-9.6 0Q0 -1.24 9.6 0Q0 1.24 -9.6 0Z"/><path fill="url(#vy)" d="M0 -9.6Q1.24 0 0 9.6Q-1.24 0 0 -9.6Z"/></g><circle r="1.7" fill="url(#cy)"/></g></g><g transform="translate(124 240.1)"><g class="pop" style="animation-delay:4.64s"><circle r="5.4" fill="#e0946a" fill-opacity=".09"/><circle r="2.7" fill="none" stroke="#e0946a" stroke-opacity=".8"/></g></g><g transform="translate(223.7 331.8)"><g class="pop" style="animation-delay:4.77s"><circle r="5.8" fill="#e0946a" fill-opacity=".09"/><circle r="3.1" fill="none" stroke="#e0946a" stroke-opacity=".8"/></g></g><g transform="translate(92.2 292.9)"><g class="pop" style="animation-delay:4.91s"><circle r="23.2" fill="url(#hy)"/><g><path fill="url(#sy)" d="M-26.8 0Q0 -2.15 26.8 0Q0 2.15 -26.8 0Z"/><path fill="url(#vy)" d="M0 -26.8Q2.15 0 0 26.8Q-2.15 0 0 -26.8Z"/></g><circle r="3.1" fill="url(#cy)"/></g></g><g transform="translate(219.8 231.1)"><g class="pop" style="animation-delay:5.04s"><circle r="6" fill="#e0946a" fill-opacity=".09"/><circle r="3.3" fill="none" stroke="#e0946a" stroke-opacity=".8"/></g></g><g transform="translate(121.3 320.5)"><g class="pop" style="animation-delay:5.18s"><circle r="26.7" fill="url(#hn)" class="tw" style="animation-delay:-1.85s"/><g class="spk" style="animation-delay:-1.85s"><path fill="url(#sn)" d="M-29.8 0Q0 -2.31 29.8 0Q0 2.31 -29.8 0Z"/><path fill="url(#vn)" d="M0 -29.8Q2.31 0 0 29.8Q-2.31 0 0 -29.8Z"/></g><circle r="3.4" fill="url(#cn)"/></g></g><g transform="translate(268.4 314.6)"><g class="pop" style="animation-delay:5.31s"><circle r="30.9" fill="url(#hn)" class="tw" style="animation-delay:-2.22s"/><g class="spk" style="animation-delay:-2.22s"><path fill="url(#sn)" d="M-33.3 0Q0 -2.49 33.3 0Q0 2.49 -33.3 0Z"/><path fill="url(#vn)" d="M0 -33.3Q2.49 0 0 33.3Q-2.49 0 0 -33.3Z"/></g><circle r="3.7" fill="url(#cn)"/></g></g><g transform="translate(111.5 212.4)"><g class="pop" style="animation-delay:5.45s"><circle r="18.7" fill="url(#hy)"/><g><path fill="url(#sy)" d="M-22.4 0Q0 -1.92 22.4 0Q0 1.92 -22.4 0Z"/><path fill="url(#vy)" d="M0 -22.4Q1.92 0 0 22.4Q-1.92 0 0 -22.4Z"/></g><circle r="2.8" fill="url(#cy)"/></g></g><g transform="translate(197 386)"><g class="pop" style="animation-delay:5.59s"><circle r="20.2" fill="url(#hn)" class="tw" style="animation-delay:-2.96s"/><g class="spk" style="animation-delay:-2.96s"><path fill="url(#sn)" d="M-23.9 0Q0 -2 23.9 0Q0 2 -23.9 0Z"/><path fill="url(#vn)" d="M0 -23.9Q2 0 0 23.9Q-2 0 0 -23.9Z"/></g><circle r="2.9" fill="url(#cn)"/></g></g><g transform="translate(153.3 224)"><g class="pop" style="animation-delay:5.72s"><circle r="17.2" fill="url(#hy)"/><g><path fill="url(#sy)" d="M-20.8 0Q0 -1.83 20.8 0Q0 1.83 -20.8 0Z"/><path fill="url(#vy)" d="M0 -20.8Q1.83 0 0 20.8Q-1.83 0 0 -20.8Z"/></g><circle r="2.6" fill="url(#cy)"/></g></g><g transform="translate(210.9 357)"><g class="pop" style="animation-delay:5.86s"><circle r="10" fill="url(#hy)"/><g><path fill="url(#sy)" d="M-12.1 0Q0 -1.37 12.1 0Q0 1.37 -12.1 0Z"/><path fill="url(#vy)" d="M0 -12.1Q1.37 0 0 12.1Q-1.37 0 0 -12.1Z"/></g><circle r="1.9" fill="url(#cy)"/></g></g><g transform="translate(201.7 147.9)"><g class="pop" style="animation-delay:5.99s"><circle r="15.9" fill="url(#hn)" class="tw" style="animation-delay:-4.07s"/><g class="spk" style="animation-delay:-4.07s"><path fill="url(#sn)" d="M-19.4 0Q0 -1.76 19.4 0Q0 1.76 -19.4 0Z"/><path fill="url(#vn)" d="M0 -19.4Q1.76 0 0 19.4Q-1.76 0 0 -19.4Z"/></g><circle r="2.5" fill="url(#cn)"/></g></g><g transform="translate(96.5 363.4)"><g class="pop" style="animation-delay:6.13s"><circle r="13.3" fill="url(#hy)"/><g><path fill="url(#sy)" d="M-16.5 0Q0 -1.6 16.5 0Q0 1.6 -16.5 0Z"/><path fill="url(#vy)" d="M0 -16.5Q1.6 0 0 16.5Q-1.6 0 0 -16.5Z"/></g><circle r="2.3" fill="url(#cy)"/></g></g><g transform="translate(43.7 273.5)"><g class="pop" style="animation-delay:6.26s"><circle r="12.5" fill="url(#hn)" class="tw" style="animation-delay:-4.81s"/><g class="spk" style="animation-delay:-4.81s"><path fill="url(#sn)" d="M-15.5 0Q0 -1.55 15.5 0Q0 1.55 -15.5 0Z"/><path fill="url(#vn)" d="M0 -15.5Q1.55 0 0 15.5Q-1.55 0 0 -15.5Z"/></g><circle r="2.2" fill="url(#cn)"/></g></g><g transform="translate(197.2 335.2)"><g class="pop" style="animation-delay:6.4s"><circle r="9.2" fill="url(#hn)" class="tw" style="animation-delay:-5.18s"/><g class="spk" style="animation-delay:-5.18s"><path fill="url(#sn)" d="M-11.1 0Q0 -1.31 11.1 0Q0 1.31 -11.1 0Z"/><path fill="url(#vn)" d="M0 -11.1Q1.31 0 0 11.1Q-1.31 0 0 -11.1Z"/></g><circle r="1.8" fill="url(#cn)"/></g></g><g class="soft" style="animation-delay:5.66s"><rect x="302.7" y="306.8" width="61.1" height="17" rx="8" fill="#080b16" fill-opacity="0.5" filter="url(#lb)"/><g transform="translate(306.7 319.1) scale(.0125)" fill="#eef1f6" stroke="#0b1020" stroke-width="192" stroke-opacity=".55" stroke-linejoin="round" paint-order="stroke"><use href="#m6e"/><use href="#m65" x="590"/><use href="#m62" x="1077"/><use href="#m75" x="1642"/><use href="#m6c" x="2210"/><use href="#m61" x="2511"/><use href="#m2d" x="2989"/><use href="#m75" x="3363"/><use href="#m69" x="3931"/></g></g><g class="soft" style="animation-delay:5.53s"><rect x="152.2" y="297.7" width="74.7" height="17" rx="8" fill="#080b16" fill-opacity="0.5" filter="url(#lb)"/><g transform="translate(156.2 310) scale(.0125)" fill="#eef1f6" stroke="#0b1020" stroke-width="192" stroke-opacity=".55" stroke-linejoin="round" paint-order="stroke"><use href="#m73"/><use href="#m74" x="424"/><use href="#m61" x="786"/><use href="#m72" x="1281"/><use href="#m67" x="1685"/><use href="#m61" x="2221"/><use href="#m74" x="2716"/><use href="#m65" x="3078"/><use href="#m2d" x="3578"/><use href="#m61" x="3952"/><use href="#m70" x="4447"/><use href="#m69" x="5019"/></g></g><g transform="translate(24 58) scale(.036)" fill="#eef1f6"><use href="#l4e"/><use href="#l79" x="793"/><use href="#l78" x="1254"/><use href="#l4f" x="1988"/><use href="#l72" x="2779"/><use href="#l69" x="3161"/><use href="#l6f" x="3469"/><use href="#l6e" x="3997"/></g><g transform="translate(24 84) scale(.017)" fill="#9ca0a9"><use href="#i46"/><use href="#i75" x="573"/><use href="#i6c" x="1095"/><use href="#i6c" x="1353"/><use href="#i53" x="1849"/><use href="#i74" x="2338"/><use href="#i61" x="2652"/><use href="#i63" x="3149"/><use href="#i6b" x="3576"/><use href="#i44" x="4281"/><use href="#i65" x="5013"/><use href="#i76" x="5456"/><use href="#i65" x="5894"/><use href="#i6c" x="6337"/><use href="#i6f" x="6595"/><use href="#i70" x="7104"/><use href="#i65" x="7602"/><use href="#i72" x="8045"/><use href="#i26" x="8628"/><use href="#i4f" x="9593"/><use href="#i70" x="10359"/><use href="#i65" x="10857"/><use href="#i6e" x="11300"/><use href="#i53" x="12068"/><use href="#i6f" x="12547"/><use href="#i75" x="13046"/><use href="#i72" x="13568"/><use href="#i63" x="13893"/><use href="#i65" x="14320"/><use href="#i45" x="15001"/><use href="#i78" x="15612"/><use href="#i70" x="16060"/><use href="#i6c" x="16568"/><use href="#i6f" x="16826"/><use href="#i72" x="17335"/><use href="#i65" x="17660"/><use href="#i72" x="18103"/></g></svg>